<?xml version="1.0" standalone="no"?>
<!DOCTYPE svg PUBLIC "-//W3C//DTD SVG 1.1//EN" "http://www.w3.org/Graphics/SVG/1.1/DTD/svg11.dtd" >
<svg xmlns="http://www.w3.org/2000/svg" xmlns:xlink="http://www.w3.org/1999/xlink" version="1.1">
<metadata>
Created by FontForge 20161116 at Sun Nov 27 10:47:43 2016
 By Jimmy Wärting
Copyright \(c\) 2016 by David Kerkhoff. All rights reserved.
</metadata>
<defs>
<font id="DKMoreOrLess-Regular" horiz-adv-x="455" >
  <font-face 
    font-family="DK More Or Less"
    font-weight="400"
    font-stretch="normal"
    units-per-em="1000"
    panose-1="0 0 0 0 0 0 0 0 0 0"
    ascent="800"
    descent="-200"
    x-height="562"
    cap-height="654"
    bbox="-46 -211 840 921"
    underline-thickness="0"
    underline-position="0"
    unicode-range="U+000D-20AC"
  />
<missing-glyph horiz-adv-x="618" 
d="M20 431c0 155 104 347 289 353h6c130 0 283 -138 283 -353c0 -133 -60 -249 -149 -309c0 -33 1 -29 1 -62c0 -29 -21 -44 -40 -44c-18 0 -36 13 -39 40v30c-18 -5 -35 -8 -53 -8c-28 0 -57 6 -86 15v-33c-1 -29 -23 -44 -42 -44c-18 0 -36 13 -39 40c0 37 0 41 1 78
c-79 63 -132 172 -132 297zM337 545c0 -52 42 -94 94 -94s94 42 94 94s-42 94 -94 94s-94 -42 -94 -94zM96 543c0 -51 41 -93 92 -93s92 42 92 93s-41 93 -92 93s-92 -42 -92 -93zM232 321c-19 33 -57 56 -91 77l-9 5l-35 -72c19 -11 36 -24 53 -37l11 -10c0 -1 1 -3 2 -3
c11 -11 23 -16 35 -16l-12 27l24 -25c3 1 5 3 7 4l-9 29l22 -12l3 8l-17 18l18 -2c0 3 -1 6 -2 9zM432 278c32 12 64 46 82 80l-67 47c-6 -20 -30 -47 -50 -55c-10 -9 -16 -19 -18 -28l19 4l-19 -14c0 -4 1 -7 2 -10l31 12l-20 -27l7 -5l29 18l-7 -23c3 0 7 0 11 1zM388 545
c0 20 17 37 38 37s38 -17 38 -37s-17 -37 -38 -37s-38 17 -38 37zM150 544c0 20 17 36 37 36s37 -16 37 -36s-17 -36 -37 -36s-37 16 -37 36z" />
    <glyph glyph-name=".notdef" horiz-adv-x="618" 
d="M20 431c0 155 104 347 289 353h6c130 0 283 -138 283 -353c0 -133 -60 -249 -149 -309c0 -33 1 -29 1 -62c0 -29 -21 -44 -40 -44c-18 0 -36 13 -39 40v30c-18 -5 -35 -8 -53 -8c-28 0 -57 6 -86 15v-33c-1 -29 -23 -44 -42 -44c-18 0 -36 13 -39 40c0 37 0 41 1 78
c-79 63 -132 172 -132 297zM337 545c0 -52 42 -94 94 -94s94 42 94 94s-42 94 -94 94s-94 -42 -94 -94zM96 543c0 -51 41 -93 92 -93s92 42 92 93s-41 93 -92 93s-92 -42 -92 -93zM232 321c-19 33 -57 56 -91 77l-9 5l-35 -72c19 -11 36 -24 53 -37l11 -10c0 -1 1 -3 2 -3
c11 -11 23 -16 35 -16l-12 27l24 -25c3 1 5 3 7 4l-9 29l22 -12l3 8l-17 18l18 -2c0 3 -1 6 -2 9zM432 278c32 12 64 46 82 80l-67 47c-6 -20 -30 -47 -50 -55c-10 -9 -16 -19 -18 -28l19 4l-19 -14c0 -4 1 -7 2 -10l31 12l-20 -27l7 -5l29 18l-7 -23c3 0 7 0 11 1zM388 545
c0 20 17 37 38 37s38 -17 38 -37s-17 -37 -38 -37s-38 17 -38 37zM150 544c0 20 17 36 37 36s37 -16 37 -36s-17 -36 -37 -36s-37 16 -37 36z" />
    <glyph glyph-name="NULL" horiz-adv-x="0" 
 />
    <glyph glyph-name="NULL" horiz-adv-x="0" 
 />
    <glyph glyph-name="CR" unicode="&#xd;" horiz-adv-x="280" 
 />
    <glyph glyph-name="space" unicode=" " horiz-adv-x="280" 
 />
    <glyph glyph-name="exclam" unicode="!" horiz-adv-x="164" 
d="M22 41c1 38 42 62 78 66h4c23 0 40 -31 40 -61c0 -26 -14 -51 -49 -51h-8c-24 0 -59 22 -65 46zM67 176c-41 0 -47 70 -47 130c0 24 1 45 1 60c0 48 6 189 7 244v5c1 34 2 73 46 73c23 0 46 -16 52 -39c0 -111 -6 -221 -6 -355c0 -29 -3 -118 -53 -118z" />
    <glyph glyph-name="quotedbl" unicode="&#x22;" horiz-adv-x="243" 
d="M38 439l-2 8c-8 42 -16 85 -16 128c0 9 0 17 1 26c2 35 6 57 16 105c4 13 19 13 31 13c24 0 38 -10 38 -34c-2 -32 -12 -63 -12 -98c0 -39 6 -77 6 -116c0 -16 -1 -62 -25 -62c-15 0 -34 17 -37 30zM141 663v23c1 12 7 37 27 37c18 0 38 -8 44 -25c7 -57 11 -115 11 -177
v-9c-2 -22 -4 -49 -36 -49c-39 0 -46 140 -46 200z" />
    <glyph glyph-name="dollar" unicode="$" horiz-adv-x="405" 
d="M228 681c3 12 11 18 20 18c8 0 17 -5 20 -17v-37c17 9 33 15 49 16c29 -1 63 -38 63 -63c0 -47 -57 -48 -84 -75l-26 -26c0 -30 1 -60 1 -90s-1 -60 -1 -89c51 -30 115 -60 115 -112c0 -69 -62 -133 -134 -172c-2 -24 -3 -48 -3 -72c-1 -14 -11 -22 -20 -22s-18 7 -20 21
c0 18 1 36 2 54c-32 -13 -64 -19 -91 -19c-33 0 -99 13 -99 61c1 18 11 30 29 30c14 0 23 -9 34 -9c29 0 95 31 138 67c3 32 5 63 7 95c-50 33 -135 79 -135 154c0 56 63 164 135 224v63zM207 387c0 -16 9 -30 23 -42c1 34 1 68 1 102c-14 -21 -24 -42 -24 -60z" />
    <glyph glyph-name="quotesingle" unicode="'" horiz-adv-x="126" 
d="M38 439l-2 8c-8 42 -16 85 -16 128c0 9 0 17 1 26c2 35 6 57 16 105c4 13 19 13 31 13c24 0 38 -10 38 -34c-2 -32 -12 -63 -12 -98c0 -39 6 -77 6 -116c0 -16 -1 -62 -25 -62c-15 0 -34 17 -37 30z" />
    <glyph glyph-name="parenleft" unicode="(" horiz-adv-x="273" 
d="M127 26c-78 2 -107 58 -107 150c0 156 9 348 122 466c17 18 34 34 59 34c23 0 52 -25 52 -44c0 -5 -1 -9 -4 -12c-93 -103 -139 -103 -149 -457v-17c0 -30 2 -42 11 -48c1 -1 3 -1 6 -1c8 0 30 4 92 23c7 0 8 -11 8 -16c0 -44 -51 -78 -90 -78z" />
    <glyph glyph-name="parenright" unicode=")" horiz-adv-x="273" 
d="M146 26c-39 0 -90 34 -90 78c0 5 1 16 8 16c62 -19 84 -23 92 -23c3 0 5 0 6 1c9 6 11 18 11 48v17c-10 354 -56 354 -149 457c-3 3 -4 7 -4 12c0 19 29 44 52 44c25 0 42 -16 59 -34c113 -118 122 -310 122 -466c0 -92 -29 -148 -107 -150z" />
    <glyph glyph-name="comma" unicode="," horiz-adv-x="132" 
d="M-46 -139c0 21 29 28 42 39c26 24 41 63 41 97c0 18 -14 34 -14 51c0 18 19 35 37 35c47 0 52 -54 52 -86c0 -62 -48 -157 -128 -157c-11 0 -30 10 -30 21z" />
    <glyph glyph-name="hyphen" unicode="-" horiz-adv-x="421" 
d="M20 358c0 18 15 32 28 32h88c35 0 70 1 105 1c55 0 160 -5 160 -40c0 -33 -139 -39 -241 -39c-49 0 -88 1 -102 1c-19 0 -38 20 -38 45z" />
    <glyph glyph-name="period" unicode="." horiz-adv-x="125" 
d="M20 51c0 11 0 20 38 26c29 0 47 -6 47 -38c0 -19 -15 -39 -37 -39h-5c-24 2 -43 32 -43 51z" />
    <glyph glyph-name="slash" unicode="/" horiz-adv-x="331" 
d="M310 664c-220 -632 -175 -665 -252 -665c-34 0 -38 28 -38 31c0 40 130 355 206 645c3 13 14 42 32 42c26 0 53 -16 53 -45c0 -2 -1 -7 -1 -8z" />
    <glyph glyph-name="zero" unicode="0" horiz-adv-x="474" 
d="M20 256c5 194 124 426 323 437c49 0 46 -27 64 -63c24 -50 47 -86 47 -146c0 -123 -46 -221 -131 -313c-37 -40 -89 -70 -144 -70c-81 0 -159 72 -159 155zM330 590c-3 1 -7 1 -10 1c-86 0 -189 -196 -189 -308c0 -39 14 -89 41 -92c3 -1 7 -1 10 -1
c73 0 174 183 176 305c0 29 -1 77 -28 95z" />
    <glyph glyph-name="one" unicode="1" horiz-adv-x="423" 
d="M20 0c1 48 88 50 114 57c26 6 85 26 85 27l-30 365c-33 -29 -65 -119 -106 -119c-42 0 -62 40 -62 72c44 82 104 147 158 222c20 28 20 56 58 56c33 0 68 -14 68 -51c0 -41 -9 -81 -10 -121c0 -8 1 -31 1 -34c3 -38 23 -358 46 -358c1 0 2 1 3 1c6 1 36 6 42 6
c15 -3 16 -17 16 -28c0 -53 -25 -44 -59 -76c-18 -17 -12 -42 -39 -42c-18 0 -30 8 -46 8l-139 -39c-2 -1 -19 -2 -24 -2c-28 0 -76 21 -76 56z" />
    <glyph glyph-name="two" unicode="2" horiz-adv-x="357" 
d="M41 128c1 16 8 36 16 49c153 254 176 317 176 350c0 11 -6 15 -15 15c-38 0 -133 -74 -131 -74c-35 0 -67 33 -67 68c0 57 141 128 194 128c83 0 123 -72 123 -144c0 -37 -6 -67 -25 -102l-152 -290c41 0 71 3 102 3c46 0 53 -2 53 -24c0 -66 -92 -80 -140 -80
c-53 0 -134 34 -134 101z" />
    <glyph glyph-name="three" unicode="3" horiz-adv-x="402" 
d="M21 78c4 21 255 7 255 166c0 37 -28 48 -62 48c-39 0 -65 -27 -102 -27c-36 0 -74 28 -74 67c0 49 196 99 198 215c-8 6 -16 8 -24 8c-28 0 -53 -31 -79 -31c-39 0 -69 20 -69 64c0 67 96 69 144 69c77 0 136 -55 136 -131c0 -59 -39 -106 -80 -144c6 -10 29 -18 35 -21
c49 -30 83 -83 83 -140c0 -118 -138 -208 -246 -208c-11 0 -116 30 -116 61c0 1 1 3 1 4z" />
    <glyph glyph-name="five" unicode="5" horiz-adv-x="457" 
d="M69 2c0 13 11 17 21 20c93 36 173 85 241 158c2 2 8 13 8 15c0 28 -319 19 -319 202c0 61 40 91 40 158v5c0 26 0 43 39 43c11 0 21 -1 31 -1c-3 0 52 13 82 21h3c4 0 21 -12 31 -15c14 0 55 7 93 7c36 0 69 -6 69 -30c0 -31 -19 -56 -51 -63l-148 -32
c-50 -11 -79 -69 -79 -115c0 -23 5 -26 24 -37l4 -2c28 -7 154 -42 182 -51c52 -17 97 -43 97 -100c0 -118 -189 -220 -281 -220c-24 0 -87 8 -87 37z" />
    <glyph glyph-name="six" unicode="6" horiz-adv-x="405" 
d="M20 151c0 164 84 512 220 563c29 -5 49 -37 49 -64c0 -26 -110 -81 -138 -321v-13c2 0 3 1 5 1c1 0 2 1 3 1c31 6 69 13 107 13c63 0 119 -19 119 -93c0 -106 -128 -240 -231 -240c-75 0 -134 84 -134 153zM116 157c0 -15 15 -68 36 -68c51 0 127 108 136 157h-17
c-56 -6 -151 -17 -155 -89z" />
    <glyph glyph-name="seven" unicode="7" horiz-adv-x="495" 
d="M191 10c0 4 1 15 1 16l90 331l82 247v5c-96 0 -182 -82 -273 -82c-27 0 -71 33 -71 63c0 34 32 48 63 48c5 0 9 0 13 -1c92 30 182 70 279 70c55 0 100 -16 100 -80c0 -7 -1 -28 -155 -509c-8 -46 -23 -141 -77 -141c-29 0 -52 1 -52 33z" />
    <glyph glyph-name="eight" unicode="8" horiz-adv-x="430" 
d="M211 33c-121 3 -174 128 -174 240c0 102 81 145 81 170c-4 17 -98 85 -98 151c0 99 128 169 237 169c74 0 140 -32 153 -109c0 -91 -75 -218 -173 -229v-4c0 -7 3 -10 7 -17l11 -17c38 -59 79 -123 79 -195c0 -78 -37 -159 -123 -159zM141 248c0 -37 11 -126 66 -126
c26 0 31 42 31 60c0 60 -28 115 -56 168h-3c-27 0 -38 -82 -38 -102zM128 562c10 -14 58 -81 68 -96l7 -13c28 71 106 135 106 216c-35 0 -188 -26 -188 -86c0 -3 5 -18 7 -21z" />
    <glyph glyph-name="nine" unicode="9" horiz-adv-x="514" 
d="M20 115c5 19 20 28 42 28c6 -3 25 -11 71 -14c116 0 224 72 224 197c0 4 -1 26 -1 31c-34 -21 -70 -36 -110 -36c-49 0 -131 51 -131 106c0 120 85 259 221 259c50 0 158 -36 158 -103c0 -1 -1 -7 -1 -7c-17 -46 -26 -80 -26 -130c-1 -14 -1 -52 -1 -89
c0 -179 -82 -285 -267 -310h-24c-62 0 -115 20 -155 68zM224 449v-10c0 -11 4 -22 30 -22c71 0 110 68 110 149c0 6 -1 11 -1 17c-3 6 -5 7 -10 7c-67 0 -129 -80 -129 -141z" />
    <glyph glyph-name="colon" unicode=":" horiz-adv-x="125" 
d="M20 546c0 11 0 20 38 26c29 0 47 -6 47 -38c0 -19 -15 -39 -37 -39h-5c-24 2 -43 32 -43 51zM20 51c0 11 0 20 38 26c29 0 47 -6 47 -38c0 -19 -15 -39 -37 -39h-5c-24 2 -43 32 -43 51z" />
    <glyph glyph-name="semicolon" unicode=";" horiz-adv-x="125" 
d="M20 546c0 11 0 20 38 26c29 0 47 -6 47 -38c0 -19 -15 -39 -37 -39h-5c-24 2 -43 32 -43 51zM-46 -139c0 21 29 28 42 39c26 24 41 63 41 97c0 18 -14 34 -14 51c0 18 19 35 37 35c47 0 52 -54 52 -86c0 -62 -48 -157 -128 -157c-11 0 -30 10 -30 21z" />
    <glyph glyph-name="question" unicode="?" horiz-adv-x="360" 
d="M115 35c0 25 28 42 49 42c38 0 57 -28 57 -51c0 -19 -12 -35 -39 -38c-30 0 -61 16 -67 47zM90 256c0 22 2 45 14 64c134 212 140 228 140 239c0 19 -15 26 -35 26c-68 0 -90 -67 -136 -91c-12 0 -45 34 -53 46c0 85 122 129 197 129h8c65 0 115 -49 115 -105
c0 -13 -3 -27 -9 -41c-144 -260 -158 -316 -183 -320c-32 0 -58 24 -58 53z" />
    <glyph glyph-name="at" unicode="@" horiz-adv-x="611" 
d="M235 -2c-154 0 -215 121 -215 251v21c0 218 137 406 361 408h6c142 -3 204 -138 204 -267c0 -78 -15 -205 -105 -205c-51 0 -87 42 -98 79c-30 -37 -57 -68 -100 -68c-50 0 -84 31 -87 93v11c0 99 51 205 158 205c57 -7 88 -58 89 -84v-7c0 -18 -3 -35 -3 -53
c3 -30 -6 -82 31 -92c2 -1 4 -1 6 -1c29 0 42 78 42 124c0 94 -55 196 -139 196c-128 0 -289 -176 -289 -328v-7c3 -85 11 -204 125 -214c24 0 54 8 71 18l161 83c14 8 34 12 49 12c5 0 11 -11 11 -12c0 -26 -37 -53 -55 -65l-3 -2c-67 -48 -135 -96 -220 -96zM278 316
c6 -14 12 -18 19 -18c39 0 54 106 55 147c-38 0 -74 -91 -74 -129z" />
    <glyph glyph-name="A" unicode="A" 
d="M20 72c49 187 91 385 181 555c14 20 27 23 47 23c26 0 44 -9 52 -38l135 -497v-10c-2 -22 -10 -36 -30 -36c-77 0 -75 92 -104 144l-150 -68c-31 -14 8 -136 -57 -136c-33 0 -74 22 -74 63zM235 446l-49 -169l88 26z" />
    <glyph glyph-name="B" unicode="B" horiz-adv-x="715" 
d="M108 495c-3 -1 -7 -3 -11 -3c-33 2 -77 41 -77 74c24 24 52 44 80 65l1 58c1 23 27 23 41 23c33 0 36 -33 70 -33c63 0 124 28 190 28c89 0 144 -30 144 -116c0 -19 0 -28 -57 -126c88 -6 206 -20 206 -128c0 -94 -193 -350 -295 -350l-12 2c-27 11 -39 23 -39 37
c0 69 242 172 242 303c0 34 -33 47 -78 47c-108 0 -290 -74 -292 -103c-4 -68 -9 -187 -9 -250c0 -18 -21 -53 -86 -53h-9c-9 0 -12 11 -12 43c0 50 8 157 8 363c0 39 -1 79 -5 119zM231 376c46 14 209 167 212 219c0 8 -2 14 -24 14c-59 0 -145 -16 -188 -43
c0 -7 -2 -29 -2 -83c0 -27 1 -62 2 -107z" />
    <glyph glyph-name="C" unicode="C" horiz-adv-x="452" 
d="M20 223c3 156 126 350 277 350c65 0 86 -16 128 -75c2 -2 7 -19 7 -24c0 -32 -28 -38 -52 -38c-23 0 -28 41 -55 41c-108 0 -197 -163 -197 -269c0 -38 17 -76 55 -76c76 0 139 53 213 53c17 0 31 -4 31 -27c0 -72 -164 -129 -219 -129c-109 0 -188 76 -188 194z" />
    <glyph glyph-name="D" unicode="D" horiz-adv-x="564" 
d="M131 503v8c-20 -12 -34 -16 -54 -16c-12 0 -57 43 -57 54c0 85 229 118 294 118c113 0 230 -57 230 -186c0 -184 -209 -387 -364 -474c-16 0 -66 24 -72 30c-2 0 -6 12 -6 54c0 59 7 179 29 412zM246 540l-43 -406c107 81 232 205 232 354c0 76 -42 77 -116 77h-24
c-22 0 -46 -4 -49 -25z" />
    <glyph glyph-name="E" unicode="E" horiz-adv-x="579" 
d="M140 227c-31 6 -78 21 -78 61c0 34 66 60 84 67c1 15 6 85 8 99c0 2 -1 6 -1 7c-21 0 -40 -13 -62 -13s-71 13 -71 43c0 66 89 74 134 85c17 30 31 38 58 38c9 0 19 -1 32 -2l22 8c68 23 136 46 209 56h5c13 0 31 -6 31 -23c-1 -22 -23 -47 -43 -56l-182 -78
c-26 -11 -29 -33 -29 -55c0 -17 1 -37 1 -60l147 79c1 1 9 1 13 1c12 0 30 -5 30 -23c0 -61 -116 -130 -197 -178c-8 -28 -8 -47 -8 -76s0 -117 33 -117c2 0 9 1 10 1l63 35l154 137c10 9 22 13 35 14c12 0 21 -14 21 -25c0 -14 -16 -31 -21 -39
c-47 -89 -148 -222 -259 -222c-139 0 -128 136 -139 236z" />
    <glyph glyph-name="F" unicode="F" horiz-adv-x="596" 
d="M198 230c-4 -1 -26 -8 -32 -8c-42 0 -88 20 -88 64c0 19 100 39 116 50c-5 104 -7 129 -10 163c-17 -10 -43 -19 -62 -27c-15 -7 -22 -7 -37 -7c-33 0 -65 29 -65 63v11c1 11 3 27 10 31l473 121c54 0 73 -24 73 -53c0 -50 -103 -63 -250 -98c-7 0 -25 -8 -26 -18
l13 -144c40 7 80 18 120 18h13c19 0 41 -12 41 -33c0 -10 -13 -43 -25 -46l-143 -59c-9 -2 -12 -9 -12 -15c0 -5 2 -10 2 -15v-16c0 -44 9 -89 9 -134v-15c0 -37 -17 -67 -60 -67c-31 0 -46 30 -60 234z" />
    <glyph glyph-name="G" unicode="G" horiz-adv-x="585" 
d="M20 265c0 154 68 287 185 387c18 16 31 17 54 17c26 0 60 -25 60 -55c0 -22 -49 -46 -61 -61c-77 -96 -123 -176 -123 -299c0 -10 0 -52 1 -61c8 -34 48 -56 80 -56c53 0 112 45 150 79c0 1 0 38 -19 38c-26 0 -50 -9 -76 -9c-32 0 -67 30 -67 64c0 27 31 45 54 52
l230 69c1 0 16 1 21 1c34 0 56 -11 56 -48c0 -53 -89 -48 -100 -91c6 -46 39 -90 39 -139c0 -4 1 -14 1 -28c0 -32 -5 -78 -35 -78c-71 0 -44 39 -74 53c-49 -39 -106 -62 -168 -62c-146 0 -208 91 -208 227z" />
    <glyph glyph-name="H" unicode="H" horiz-adv-x="443" 
d="M88 210c-32 5 -68 28 -68 64c0 48 66 18 66 66c0 3 0 7 -1 11c-8 70 -17 142 -25 190c0 29 21 29 43 29c76 0 87 -91 87 -164c0 -27 -2 -52 -2 -70c24 0 82 3 94 25l27 324c2 20 26 28 43 28c28 0 63 -24 63 -53c-2 -125 -23 -249 -23 -375c0 -91 31 -248 31 -315
c0 -18 -8 -20 -25 -20c-41 0 -88 29 -94 72l-31 227c-19 0 -61 -4 -71 -28c-2 -14 -3 -28 -3 -42c0 -66 20 -134 20 -205c0 -21 -7 -41 -32 -41c-17 0 -60 3 -67 23c-29 77 -17 173 -32 254z" />
    <glyph glyph-name="I" unicode="I" horiz-adv-x="186" 
d="M102 76c-63 0 -82 87 -82 191c0 134 31 297 40 345c4 22 21 42 44 42c26 0 62 -28 62 -55c0 -122 -37 -238 -37 -362c0 -61 14 -77 14 -126c0 -23 -21 -35 -41 -35z" />
    <glyph glyph-name="J" unicode="J" horiz-adv-x="477" 
d="M94 70c1 13 10 24 22 24c2 0 4 -1 5 -1c63 -18 110 -29 144 -29c67 0 84 40 84 136c0 24 -1 50 -3 81c-1 16 -3 27 -30 232h-17l-199 -32c-25 0 -64 20 -80 50v11c0 29 8 43 43 47l217 24c-6 6 -10 16 -10 27v5c0 30 29 51 60 51c74 0 105 -152 109 -204
c5 -76 18 -177 18 -216c0 -200 -25 -317 -142 -317c-25 0 -217 37 -221 111z" />
    <glyph glyph-name="K" unicode="K" horiz-adv-x="473" 
d="M20 150c0 151 47 396 94 552c11 37 33 54 56 54c26 0 54 -20 68 -56c-9 -32 -62 -218 -62 -226c42 36 143 121 207 121c30 0 44 -30 44 -65c0 -17 -1 -24 -19 -34c-89 -51 -145 -83 -219 -162c31 -40 192 -119 246 -145c13 -5 18 -15 18 -26c0 -27 -28 -63 -53 -63
c-72 0 -174 70 -253 125h-8c0 -75 -2 -196 -44 -196c-65 0 -75 65 -75 121z" />
    <glyph glyph-name="L" unicode="L" horiz-adv-x="394" 
d="M20 129c2 5 3 18 3 19l104 506c4 15 18 26 32 26c44 0 67 -42 67 -78c0 -3 -2 -18 -2 -21l-96 -473c87 26 204 75 218 75c16 0 28 -20 28 -34c0 -22 -37 -56 -51 -66c-30 -15 -130 -72 -166 -72c-81 0 -137 32 -137 109v9z" />
    <glyph glyph-name="M" unicode="M" horiz-adv-x="551" 
d="M20 533c2 31 44 47 67 47c62 0 60 -91 167 -91c148 0 142 111 204 111c63 0 73 -35 73 -77v-382c0 -26 0 -67 -37 -67c-74 0 -76 86 -76 142v8c0 32 3 65 3 115c0 26 -2 54 -9 83h-8c-46 -17 -85 -30 -135 -30c-35 0 -68 8 -102 9c-1 -22 -2 -45 -2 -68
c0 -38 2 -77 7 -117l22 -177c-1 -20 -15 -37 -36 -37c-20 0 -70 14 -71 37c-23 449 -67 458 -67 494z" />
    <glyph glyph-name="N" unicode="N" horiz-adv-x="504" 
d="M20 44c0 41 70 278 70 437c0 9 -1 18 -1 27v8c-1 3 -1 6 -1 10c0 32 31 67 63 67c118 0 64 -335 174 -372c45 411 66 413 96 413c32 0 63 -25 63 -62c0 -9 -16 -58 -17 -64c-16 -74 1 -420 -104 -420c-87 0 -159 101 -181 176c-2 -4 -9 -19 -52 -210
c-6 -28 -19 -50 -47 -50h-4c-26 1 -59 5 -59 40z" />
    <glyph glyph-name="O" unicode="O" horiz-adv-x="552" 
d="M20 246v6c0 257 182 410 330 410c125 0 182 -104 182 -225c0 -177 -122 -395 -332 -395c-120 0 -180 87 -180 204zM128 256c0 -61 16 -117 85 -117c109 0 221 191 221 317c0 62 -27 108 -94 108c-120 0 -212 -211 -212 -308z" />
    <glyph glyph-name="P" unicode="P" horiz-adv-x="476" 
d="M46 518c-13 8 -26 29 -26 44c0 12 4 25 15 31c78 48 123 75 209 75c79 0 212 -28 212 -137c0 -145 -130 -246 -271 -357l29 -167c0 -23 -1 -55 -32 -55c-23 0 -68 32 -72 60zM158 541c0 -8 -1 -16 -1 -24c0 -28 3 -69 18 -218c73 45 170 138 170 228
c-10 38 -45 52 -83 52c-41 0 -86 -17 -104 -38z" />
    <glyph glyph-name="Q" unicode="Q" horiz-adv-x="585" 
d="M392 99c-54 -3 -104 -61 -167 -61c-140 0 -205 126 -205 252c0 162 150 373 326 373c112 0 219 -103 219 -219c0 -69 -17 -142 -53 -199c-13 -26 -44 -54 -44 -66c0 2 3 -15 7 -19l69 -86c6 -12 7 -20 7 -33c0 -14 -13 -16 -24 -16h-14c-54 1 -107 74 -121 74zM125 279
c0 -43 7 -149 74 -149c47 0 96 29 129 62v21l-33 92c-1 1 -1 5 -1 7c1 24 23 28 41 28c32 0 70 -7 80 -44c39 52 45 116 45 183c0 28 -3 70 -27 70c-26 0 -46 -21 -70 -21c-23 0 -30 15 -30 32c0 6 1 12 2 19c-122 -27 -208 -184 -210 -300z" />
    <glyph glyph-name="R" unicode="R" horiz-adv-x="519" 
d="M51 496c-19 12 -27 30 -27 51c0 44 36 95 80 95c74 0 121 45 193 45c70 0 202 -13 202 -109c0 -38 -14 -86 -236 -332c11 0 43 1 125 1c57 0 89 -4 89 -47c0 -4 -1 -14 -47 -30l-235 -23v-106c0 -25 -28 -32 -52 -32c-21 0 -45 3 -47 24zM173 527c0 -66 7 -131 7 -200
v-21c59 44 206 186 206 258c0 24 -46 24 -54 24c-44 0 -141 -9 -159 -61z" />
    <glyph glyph-name="S" unicode="S" horiz-adv-x="405" 
d="M20 57c1 18 11 30 29 30c14 0 23 -9 34 -9c46 0 179 75 179 128c0 34 -169 83 -169 188c0 79 126 261 224 267c29 -1 63 -38 63 -63c0 -47 -57 -48 -84 -75c-30 -29 -89 -93 -89 -136c0 -70 178 -93 178 -181c0 -112 -163 -210 -266 -210c-33 0 -99 13 -99 61z" />
    <glyph glyph-name="T" unicode="T" horiz-adv-x="536" 
d="M189 554h-7c-9 -2 -82 -18 -95 -19c-33 0 -67 40 -67 73c0 11 0 24 15 26l121 26c39 8 17 63 80 63c27 0 35 -3 62 -16c49 13 102 20 139 20h4c38 0 75 -1 75 -52c0 -6 -1 -12 -8 -15l-199 -66l-6 -7c-1 -1 -3 -48 -3 -66c-2 -59 -2 -117 -2 -176c0 -72 1 -145 3 -216
c1 -46 12 -96 12 -142c0 -17 -9 -41 -32 -41c-79 0 -88 244 -88 397c0 48 1 88 1 109v11c0 14 -3 77 -5 91z" />
    <glyph glyph-name="U" unicode="U" 
d="M20 205c11 145 41 258 52 392c1 19 35 24 49 25c20 -1 53 -29 53 -55c-9 -123 -53 -243 -53 -374c0 -34 3 -71 19 -71c52 0 178 190 178 417c-1 17 -1 60 -1 67c5 27 32 40 54 40c31 0 57 -25 59 -57l4 -479s1 -2 1 -3c-2 -15 -23 -31 -35 -31c-14 0 -49 19 -52 32
l-2 161c-20 -75 -109 -252 -202 -252c-95 0 -124 94 -124 188z" />
    <glyph glyph-name="V" unicode="V" horiz-adv-x="401" 
d="M20 628c15 14 30 16 35 16c31 0 56 -14 69 -43c-1 -21 -1 -76 -1 -132s0 -111 1 -131c1 -15 5 -81 7 -95l144 351c6 12 31 14 42 14c30 0 64 -20 64 -52c0 -3 -1 -15 -2 -16l-206 -473c-5 -6 -16 -7 -26 -7h-5c-103 0 -122 142 -122 217v351z" />
    <glyph glyph-name="W" unicode="W" horiz-adv-x="628" 
d="M36 563c3 36 12 65 54 65c28 0 51 -22 53 -59c-6 -53 -10 -105 -10 -155c0 -57 4 -112 13 -166c126 90 85 331 190 331c42 0 53 -32 53 -68c0 -52 -13 -103 -13 -159c0 -49 8 -98 35 -144c11 0 33 45 36 59c63 329 92 354 112 354c32 0 44 -34 49 -63
c-2 -20 -15 -105 -17 -123c-19 -146 -51 -349 -180 -349c-76 0 -117 82 -139 155l-6 -16c-26 -61 -68 -162 -130 -162c-92 0 -115 158 -115 296c0 71 8 134 15 204z" />
    <glyph glyph-name="X" unicode="X" 
d="M153 306l-133 185v7c1 31 12 55 49 55c80 0 94 -95 145 -139l111 216c8 17 26 22 44 22h4c35 -1 62 -34 62 -68c0 -5 -2 -21 -3 -22l-135 -254l105 -147c10 -12 15 -32 15 -47c0 -16 -12 -30 -33 -30c-16 5 -53 24 -54 25l-91 99l-94 -163c-9 -16 -41 -30 -69 -30
c-24 0 -45 11 -45 40c0 9 2 20 122 251z" />
    <glyph glyph-name="Y" unicode="Y" horiz-adv-x="510" 
d="M121 242c-1 51 -62 86 -100 341c0 1 -1 4 -1 8v9c0 44 0 75 41 75c91 0 84 -136 119 -329c11 0 156 286 173 318c19 37 40 67 83 67c25 0 54 -28 54 -54c0 -17 -25 -52 -40 -69l-216 -395l-10 -184c-1 -18 -21 -27 -36 -27c-63 0 -68 45 -68 97c0 22 1 122 1 143z" />
    <glyph glyph-name="Z" unicode="Z" horiz-adv-x="417" 
d="M23 167c1 16 8 34 17 46c33 43 113 147 116 149l8 8c2 3 68 94 93 130c12 17 22 35 22 49s-10 23 -38 23c-41 0 -97 -34 -142 -34c-24 0 -79 14 -79 51c0 28 31 48 52 57c33 14 95 26 155 26c86 0 170 -26 170 -112c0 -35 -22 -74 -43 -102l-202 -266l182 40
c30 0 35 -4 35 -19c0 -95 -133 -122 -211 -122c-29 0 -135 16 -135 76z" />
    <glyph glyph-name="underscore" unicode="_" horiz-adv-x="725" 
d="M20 48c0 10 1 15 11 26c13 4 24 5 115 5h203c88 0 237 -19 268 -24c45 -7 77 -8 86 -20c2 -3 2 -6 2 -11c0 -8 -3 -19 -10 -19c-111 0 -224 7 -336 7h-19c-95 0 -188 -7 -283 -16c-22 0 -37 25 -37 52z" />
    <glyph glyph-name="a" unicode="a" horiz-adv-x="532" 
d="M20 100v15c2 34 83 304 88 315c4 11 40 93 52 117c23 48 70 147 135 147c52 0 79 -34 92 -81l125 -461c0 -25 0 -52 -30 -52c-38 0 -62 40 -73 74c-5 15 -26 86 -30 102h-7c-61 -21 -145 -34 -205 -66c-37 -49 -5 -169 -85 -169c-30 0 -62 27 -62 59zM291 547l-14 -14
c-3 -3 -39 -80 -51 -110c-6 -12 -26 -68 -30 -81l154 22z" />
    <glyph glyph-name="b" unicode="b" horiz-adv-x="668" 
d="M108 63c-1 13 -1 74 -1 87c0 75 14 320 37 367l-4 1c-19 0 -27 -23 -48 -23c-33 0 -72 30 -72 66c0 9 4 13 12 19l3 2c78 55 156 80 253 80c90 0 310 -14 310 -145c0 -62 -49 -95 -94 -137c6 1 12 1 19 1c47 0 125 -32 125 -84c0 -116 -262 -249 -343 -249
c-23 0 -62 11 -62 42c0 7 0 14 9 17c78 41 202 95 266 172c-2 1 -15 1 -17 1c-87 0 -204 -35 -278 -80c-14 -49 13 -174 -60 -174c-22 0 -52 11 -55 37zM313 569h-10c-65 0 -69 -208 -77 -247c1 -1 4 -2 8 -2c47 0 256 89 256 207c0 34 -154 42 -177 42z" />
    <glyph glyph-name="c" unicode="c" horiz-adv-x="513" 
d="M20 294c0 172 118 336 286 336c75 0 155 -38 155 -135c0 -19 -15 -30 -33 -30c-1 0 -7 1 -8 1c-23 22 -46 57 -99 57c-4 0 -9 -1 -13 -1c-109 -11 -169 -119 -169 -233c0 -90 66 -125 135 -125c27 0 127 26 182 26c22 0 37 -4 37 -16c0 -96 -160 -113 -224 -113
c-121 0 -249 93 -249 233z" />
    <glyph glyph-name="d" unicode="d" horiz-adv-x="555" 
d="M135 13v5c1 10 8 96 8 107c0 121 -24 245 -31 368c-3 49 -92 28 -92 92c0 59 155 93 194 93c160 0 321 -87 321 -259c0 -154 -206 -425 -371 -425c-11 0 -29 2 -29 19zM226 575c0 -135 22 -305 32 -427c79 73 169 172 169 286c0 113 -101 141 -201 141z" />
    <glyph glyph-name="e" unicode="e" horiz-adv-x="556" 
d="M88 215c-37 10 -68 27 -68 69c0 13 46 30 70 39c22 36 22 96 22 137v9c0 26 -80 27 -80 66c0 46 77 45 91 78c9 23 2 37 34 39c10 0 57 -1 67 -1c94 30 166 58 264 58c20 0 48 -2 48 -21c0 -52 -270 -123 -307 -145c-12 -63 -16 -88 -17 -142c0 -5 0 -28 1 -34
c72 19 147 78 215 78c20 0 41 -19 41 -40c0 -6 -30 -47 -62 -61l-204 -85c-2 -107 -2 -108 -2 -108c0 -27 31 -63 58 -63c29 0 35 10 63 34c20 17 107 96 124 113c2 1 11 1 13 1c20 0 42 -23 42 -43c0 -28 -50 -86 -63 -100c-48 -52 -96 -99 -170 -99
c-125 0 -169 117 -180 221z" />
    <glyph glyph-name="f" unicode="f" horiz-adv-x="626" 
d="M185 196l-3 12c-37 5 -78 41 -78 83c0 34 47 37 72 39l1 150s-2 1 -3 1c-28 0 -49 -24 -79 -24c-34 0 -73 31 -75 69v8c0 10 2 11 13 18c1 0 2 1 3 2l6 2c19 10 110 52 129 60c4 43 9 62 51 62c25 0 36 -17 62 -17c4 0 17 1 19 1l175 37c31 0 125 -1 128 -54
c0 -2 -1 -7 -1 -8c0 -54 -245 -56 -312 -105c0 -6 -1 -25 -1 -51c0 -31 1 -72 4 -120c40 4 94 28 135 28c26 0 48 -10 57 -42c0 -63 -142 -71 -189 -109c-1 -2 -1 -20 -1 -27c2 -45 23 -87 23 -135c0 -20 -8 -42 -31 -42c-80 0 -95 101 -105 162z" />
    <glyph glyph-name="g" unicode="g" horiz-adv-x="558" 
d="M20 255c0 132 120 420 288 420c28 0 47 -19 47 -45c0 -63 -68 -69 -103 -114c-26 -32 -117 -188 -117 -277c0 -38 17 -64 62 -64c78 0 156 64 167 144c-23 0 -39 -16 -60 -16c-29 0 -85 30 -85 62c0 15 3 31 16 41c74 26 146 48 226 48c35 0 77 -33 77 -74
c0 -40 -38 -56 -73 -56c-8 0 -16 1 -22 2c10 -16 16 -33 16 -50c0 -103 -170 -211 -254 -211c-111 0 -185 86 -185 190z" />
    <glyph glyph-name="h" unicode="h" horiz-adv-x="535" 
d="M74 266l-3 3c-21 17 -51 41 -51 70c0 15 29 38 47 42l14 175c2 21 23 23 36 23s75 -5 75 -38v-127c57 0 123 17 179 28c15 15 17 59 17 110c0 28 -1 58 -1 88c0 86 7 167 57 167c41 0 71 -25 71 -69c-16 -178 -22 -340 -22 -525c0 -44 8 -86 8 -130c0 -8 -7 -27 -41 -27
c-14 0 -34 4 -59 13c-25 12 -30 72 -30 153c0 30 1 59 2 92v11c-61 0 -121 -12 -177 -36c0 -58 7 -112 7 -168v-7c0 -36 0 -85 -41 -85c-49 0 -68 42 -73 85c-3 23 -14 130 -15 152z" />
    <glyph glyph-name="i" unicode="i" horiz-adv-x="203" 
d="M20 79v13c0 160 21 319 55 485c6 29 11 41 39 41c39 0 69 -34 69 -72v-4c-7 -159 -39 -319 -46 -479c-1 -23 -20 -57 -47 -57c-31 0 -69 41 -70 73z" />
    <glyph glyph-name="j" unicode="j" horiz-adv-x="562" 
d="M66 218c0 63 37 118 106 118c20 0 38 -15 38 -39c0 -33 -38 -49 -38 -82c0 -47 50 -152 109 -152c63 0 94 118 102 159c8 43 13 85 13 128c0 35 -4 70 -13 105h-8l-211 -30h-7c-40 0 -137 9 -137 74c0 25 23 44 47 46c19 -2 39 -3 58 -3c25 0 235 25 235 43
c0 3 -8 45 -8 67c0 30 5 59 41 59c108 0 60 -112 88 -120l52 -15c8 -2 9 -21 9 -31c0 -43 -9 -39 -46 -59v-8c0 -49 8 -99 8 -148c0 -124 -35 -357 -204 -357c-111 0 -234 141 -234 245z" />
    <glyph glyph-name="k" unicode="k" horiz-adv-x="712" 
d="M20 126c0 61 51 376 60 442c7 48 -1 121 63 121c31 0 63 -37 63 -67c0 -32 -29 -149 -29 -182v-14c64 50 137 101 224 149c27 17 31 19 60 19c32 0 60 -23 60 -57c-1 -73 -259 -163 -277 -225c85 -98 228 -117 353 -117c27 0 54 1 79 3c14 -6 16 -15 16 -27
c0 -71 -112 -80 -155 -80c-139 0 -300 54 -390 167l-22 -181c-3 -21 -17 -55 -41 -55c-54 0 -64 65 -64 104z" />
    <glyph glyph-name="l" unicode="l" horiz-adv-x="356" 
d="M20 198v22l37 432c10 15 24 22 39 22c23 0 48 -15 63 -36c0 -6 1 -34 1 -40v-8c0 -25 0 -45 -30 -383c0 -17 4 -46 22 -53c72 0 104 8 139 8c44 -6 45 -14 45 -25c0 -70 -108 -93 -158 -93c-85 0 -158 69 -158 154z" />
    <glyph glyph-name="m" unicode="m" horiz-adv-x="678" 
d="M32 33c-9 35 -12 76 -12 121c0 125 28 276 43 376c16 31 43 37 76 37c76 0 61 -163 165 -188c124 19 195 256 290 256c33 0 64 -26 64 -61l-68 -414c-6 -18 -20 -30 -37 -30c-35 0 -62 18 -62 51c0 82 31 161 31 244c-78 -63 -89 -152 -215 -152c-58 0 -110 50 -146 91
c-34 -92 -22 -219 -30 -316c-9 -25 -25 -36 -45 -36c-16 0 -34 8 -54 21z" />
    <glyph glyph-name="n" unicode="n" horiz-adv-x="570" 
d="M176 270l-34 -133c-7 -27 -33 -107 -72 -107c-5 0 -11 2 -17 6c-24 14 -33 20 -33 35c0 16 9 41 95 435c3 15 17 38 36 41c76 -3 75 -96 85 -138l4 -11c26 -82 67 -207 99 -255l87 393c8 36 27 117 80 117c21 0 44 -21 44 -46c0 -86 -74 -310 -96 -411
c-12 -54 -14 -189 -73 -189c-56 0 -105 50 -126 98c-14 24 -68 140 -79 165z" />
    <glyph glyph-name="o" unicode="o" horiz-adv-x="528" 
d="M20 297c7 171 95 377 279 377h7c109 -7 202 -125 202 -261c0 -158 -117 -350 -293 -350h-8c-118 4 -187 118 -187 225v9zM137 295v-6c0 -86 27 -119 62 -119c73 0 185 138 188 233v14c0 63 -20 148 -99 148c-88 0 -149 -207 -151 -270z" />
    <glyph glyph-name="p" unicode="p" horiz-adv-x="501" 
d="M36 41c0 172 6 344 7 528l-3 3c-13 12 -20 18 -20 34c0 59 181 83 251 83c113 0 210 -76 210 -194c0 -157 -203 -257 -333 -310c-2 -5 -3 -13 -3 -22c0 -26 6 -63 6 -92c0 -18 -2 -31 -10 -37c-26 -21 -48 -29 -65 -29c-25 0 -39 18 -40 36zM164 561
c-3 -73 -8 -174 -8 -211c0 -8 1 -45 1 -53c95 39 217 125 217 240c0 33 -45 44 -95 44c-46 0 -96 -9 -115 -20z" />
    <glyph glyph-name="q" unicode="q" horiz-adv-x="604" 
d="M20 259c0 155 129 419 310 419c42 0 46 -22 84 -40c93 -8 170 -77 170 -172c0 -105 -52 -200 -122 -278v-8c0 -55 121 -58 121 -121c0 -27 -16 -33 -38 -33c-62 0 -115 38 -163 74c-29 -21 -109 -73 -152 -73c-146 0 -210 92 -210 232zM140 226c0 -29 1 -87 44 -87
c36 0 90 17 110 49c-15 19 -57 59 -57 93c0 32 25 44 53 44c33 0 75 -22 84 -56c55 41 97 136 97 205c0 35 -9 68 -47 68c-28 0 -55 -9 -82 -9c-15 0 -26 9 -40 9c-36 -2 -60 -42 -76 -71c-46 -80 -86 -149 -86 -245z" />
    <glyph glyph-name="r" unicode="r" horiz-adv-x="545" 
d="M46 15l16 463c-21 17 -42 29 -42 55v4c4 40 37 40 51 72c14 31 -2 71 49 71c28 0 34 -22 62 -22c48 0 97 13 147 13c97 0 196 -24 196 -118v-11c-3 -34 -24 -66 -276 -281c104 -46 244 -36 244 -105v-4c-3 -32 -15 -40 -39 -40c-97 0 -201 52 -302 60
c-3 -43 5 -175 -61 -175c-14 0 -41 3 -45 18zM404 545c-1 10 -34 15 -73 15c-58 0 -147 -11 -149 -31l-16 -194c8 3 133 90 171 125c24 22 63 68 67 85z" />
    <glyph glyph-name="s" unicode="s" horiz-adv-x="501" 
d="M20 165c0 22 15 35 38 35c21 0 40 -9 68 -9c46 0 234 52 234 102c0 1 0 4 -1 4c-75 49 -264 54 -264 185c0 49 58 108 91 131c41 30 122 84 178 84c34 0 49 -35 49 -64c0 -46 -28 -39 -65 -59c-31 -17 -137 -74 -137 -109c0 -12 14 -17 31 -23l5 -2
c69 -24 234 -54 234 -159c0 -72 -87 -120 -144 -142c-23 -9 -130 -43 -213 -43c-58 0 -104 17 -104 69z" />
    <glyph glyph-name="t" unicode="t" horiz-adv-x="631" 
d="M277 553l-170 -73c-2 0 -15 -1 -21 -1c-33 0 -66 22 -66 59v4c0 13 0 29 16 34c41 23 350 146 497 146c47 0 78 -14 78 -47c0 -15 -7 -21 -22 -24l-177 -52c-9 -4 -14 -28 -14 -30c-3 -47 -14 -269 -14 -318c0 -67 21 -133 21 -200c0 -28 -16 -43 -40 -43
c-84 0 -86 136 -88 201v6c-1 26 -1 98 -1 169c0 72 0 143 1 169z" />
    <glyph glyph-name="u" unicode="u" horiz-adv-x="435" 
d="M20 236v12c0 153 43 350 52 350c0 1 38 8 53 8c36 0 64 -16 64 -53c0 -27 -15 -48 -22 -74c-24 -95 -41 -189 -41 -287c0 -7 1 -13 1 -16c0 -2 10 -36 23 -36c122 90 162 323 167 462c15 13 23 15 39 15c28 0 59 -27 59 -56c0 -89 -10 -142 -33 -235
c-5 -19 -36 -107 -44 -125c-32 -69 -93 -167 -178 -167c-117 0 -140 108 -140 202z" />
    <glyph glyph-name="v" unicode="v" horiz-adv-x="465" 
d="M20 322v17c0 71 3 340 75 340c34 0 61 -31 61 -65c0 -91 -24 -182 -24 -273c0 -55 3 -81 15 -145c3 2 8 12 8 14c40 142 113 275 186 409c6 22 22 23 39 23c12 0 65 -8 65 -31c-39 -106 -90 -191 -111 -245c-63 -138 -85 -342 -171 -342c-127 0 -143 222 -143 298z" />
    <glyph glyph-name="w" unicode="w" horiz-adv-x="640" 
d="M125 26c-83 0 -105 110 -105 229c0 98 8 127 22 266c3 35 20 41 50 41c26 0 51 -30 57 -58c-1 -74 -19 -188 -19 -275c0 -13 0 -25 1 -36c76 92 100 212 163 311c38 0 64 -2 89 -41c-2 -56 -3 -105 -3 -146c0 -116 9 -176 35 -176c45 0 79 130 83 167c7 65 11 131 18 202
c4 33 0 50 43 50s61 -36 61 -101c0 -25 -15 -433 -191 -433c-90 0 -138 92 -158 182c-29 -67 -108 -182 -146 -182z" />
    <glyph glyph-name="x" unicode="x" horiz-adv-x="422" 
d="M36 128c0 3 1 11 1 12l89 235v8l-7 11c-37 61 -99 167 -99 240c0 25 13 49 41 49c19 0 57 -13 65 -33l57 -138c2 1 7 7 8 8c26 49 78 187 146 195c3 0 6 1 9 1c33 0 52 -27 56 -58c-44 -75 -99 -179 -130 -267v-12c0 -11 0 -20 8 -28l114 -114s1 -10 1 -13
c0 -21 -10 -35 -34 -35c-46 0 -123 73 -134 73c-6 0 -9 -2 -12 -9l-105 -169c-1 0 -5 -1 -7 -1c-24 0 -67 16 -67 45z" />
    <glyph glyph-name="y" unicode="y" horiz-adv-x="520" 
d="M20 562c0 37 3 67 48 67c85 0 63 -98 71 -151c9 -63 29 -118 65 -172c162 329 182 394 227 394c43 0 69 -20 69 -62c0 -34 -82 -125 -222 -461c0 0 -1 -7 -1 -10c0 -49 31 -94 31 -143c0 -25 -27 -47 -52 -47c-71 0 -78 157 -95 208c-1 3 -12 24 -15 28
c-71 109 -126 215 -126 349z" />
    <glyph glyph-name="z" unicode="z" horiz-adv-x="491" 
d="M191 32h-11c-58 0 -130 38 -130 85c0 11 5 25 15 36c207 254 228 289 233 302v3c-1 22 -31 25 -71 25c-21 0 -51 -1 -127 -37h-4c-37 0 -76 46 -76 80c0 47 140 64 172 64c86 0 206 -30 206 -135c0 -55 -23 -100 -57 -144c-21 -35 -127 -134 -134 -171c1 0 3 -1 5 -1
c27 0 130 25 197 25c36 0 62 -7 62 -28c0 -16 0 -35 -17 -46c-24 -11 -217 -58 -263 -58z" />
    <glyph glyph-name="exclamdown" unicode="&#xa1;" horiz-adv-x="164" 
d="M142 642c-1 -38 -42 -62 -78 -66h-4c-23 0 -40 31 -40 61c0 26 14 51 49 51h8c24 0 59 -22 65 -46zM97 507c41 0 47 -70 47 -130c0 -24 -1 -45 -1 -60c0 -48 -6 -189 -7 -244v-5c-1 -34 -2 -73 -46 -73c-23 0 -46 16 -52 39c0 111 6 221 6 355c0 29 3 118 53 118z" />
    <glyph glyph-name="questiondown" unicode="&#xbf;" horiz-adv-x="360" 
d="M245 622c0 -25 -28 -42 -49 -42c-38 0 -57 28 -57 51c0 19 12 35 39 38c30 0 61 -16 67 -47zM270 401c0 -22 -2 -45 -14 -64c-134 -212 -140 -228 -140 -239c0 -19 15 -26 35 -26c68 0 90 67 136 91c12 0 45 -34 53 -46c0 -85 -122 -129 -197 -129h-8
c-65 0 -115 49 -115 105c0 13 3 27 9 41c144 260 158 316 183 320c32 0 58 -24 58 -53z" />
    <glyph glyph-name="Agrave" unicode="&#xc0;" 
d="M20 72c49 187 91 385 181 555c14 20 27 23 47 23c26 0 44 -9 52 -38l135 -497v-10c-2 -22 -10 -36 -30 -36c-77 0 -75 92 -104 144l-150 -68c-31 -14 8 -136 -57 -136c-33 0 -74 22 -74 63zM235 446l-49 -169l88 26zM229 803c42 -20 104 -59 104 -91
c0 -18 -20 -32 -35 -32c-6 0 -12 2 -18 4c-25 13 -102 49 -102 74s18 46 41 46c3 0 7 0 10 -1z" />
    <glyph glyph-name="Aacute" unicode="&#xc1;" 
d="M20 72c49 187 91 385 181 555c14 20 27 23 47 23c26 0 44 -9 52 -38l135 -497v-10c-2 -22 -10 -36 -30 -36c-77 0 -75 92 -104 144l-150 -68c-31 -14 8 -136 -57 -136c-33 0 -74 22 -74 63zM235 446l-49 -169l88 26zM249 803c3 1 7 1 10 1c23 0 41 -21 41 -46
s-77 -61 -102 -74c-6 -2 -12 -4 -18 -4c-15 0 -35 14 -35 32c0 32 62 71 104 91z" />
    <glyph glyph-name="Acircumflex" unicode="&#xc2;" 
d="M20 72c49 187 91 385 181 555c14 20 27 23 47 23c26 0 44 -9 52 -38l135 -497v-10c-2 -22 -10 -36 -30 -36c-77 0 -75 92 -104 144l-150 -68c-31 -14 8 -136 -57 -136c-33 0 -74 22 -74 63zM235 446l-49 -169l88 26zM102 704c0 6 0 12 6 18c15 18 86 101 102 118
c5 7 30 30 43 35c48 0 44 -30 58 -64c13 -31 74 -86 74 -115c0 -13 -14 -18 -25 -18c-41 0 -94 76 -109 107c-27 -19 -73 -115 -104 -115c-18 0 -45 15 -45 34z" />
    <glyph glyph-name="Atilde" unicode="&#xc3;" 
d="M20 72c49 187 91 385 181 555c14 20 27 23 47 23c26 0 44 -9 52 -38l135 -497v-10c-2 -22 -10 -36 -30 -36c-77 0 -75 92 -104 144l-150 -68c-31 -14 8 -136 -57 -136c-33 0 -74 22 -74 63zM235 446l-49 -169l88 26zM181 756c-18 0 7 -60 -35 -60c-13 0 -42 21 -42 36
c0 40 15 93 68 93c48 0 71 -49 106 -77c14 0 41 57 62 72c1 0 5 1 5 1c23 0 24 -31 24 -44c0 -40 -31 -97 -82 -97c-50 0 -97 76 -106 76z" />
    <glyph glyph-name="Adieresis" unicode="&#xc4;" 
d="M20 72c49 187 91 385 181 555c14 20 27 23 47 23c26 0 44 -9 52 -38l135 -497v-10c-2 -22 -10 -36 -30 -36c-77 0 -75 92 -104 144l-150 -68c-31 -14 8 -136 -57 -136c-33 0 -74 22 -74 63zM235 446l-49 -169l88 26zM117 728c0 17 19 27 39 27c22 0 46 -12 46 -39
c0 -19 -15 -39 -37 -39h-5c-24 2 -43 32 -43 51zM317 679c-21 2 -42 27 -42 50c0 16 10 30 37 35c29 0 47 -14 47 -46c0 -19 -15 -39 -37 -39h-5z" />
    <glyph glyph-name="Aring" unicode="&#xc5;" 
d="M128 682c0 62 63 119 131 119c49 0 105 -19 105 -73c0 -40 -29 -82 -67 -109l3 -7l135 -497v-10c-2 -22 -10 -36 -30 -36c-77 0 -75 92 -104 144l-150 -68c-31 -14 8 -136 -57 -136c-33 0 -74 22 -74 63c46 176 86 363 166 526c-36 13 -58 47 -58 84zM197 678
c0 -11 0 -21 17 -26c2 -1 5 -1 7 -1c31 0 80 45 80 76c0 12 -8 23 -28 27c-35 0 -76 -36 -76 -76zM235 446l-49 -169l88 26z" />
    <glyph glyph-name="AE" unicode="&#xc6;" horiz-adv-x="684" 
d="M384 -9c-119 0 -128 99 -135 190c0 4 -1 13 -1 25l-97 -44c-31 -14 8 -136 -57 -136c-33 0 -74 22 -74 63c49 187 91 385 181 555c14 20 27 23 47 23c26 0 48 -8 52 -38l6 -47c79 41 164 95 260 95c17 0 50 0 50 -24c0 -22 -23 -47 -43 -56l-182 -78
c-26 -11 -29 -33 -29 -55c0 -17 1 -37 1 -60l147 79c1 1 9 1 13 1c12 0 30 -5 30 -23c0 -61 -116 -130 -197 -178c-8 -28 -8 -47 -8 -76s0 -117 33 -117c2 0 9 1 10 1c169 85 232 184 252 186c12 0 21 -14 21 -25c0 -97 -191 -261 -280 -261zM248 492l-62 -198l54 32l2 46
c2 41 2 83 6 120z" />
    <glyph glyph-name="Ccedilla" unicode="&#xc7;" horiz-adv-x="452" 
d="M102 -180c0 21 146 2 162 104c-15 -4 -47 -18 -70 -21c-25 0 -59 9 -59 45v6c2 27 13 54 26 80c-84 18 -141 88 -141 189c0 156 126 350 277 350c65 0 86 -16 128 -75c2 -2 7 -19 7 -24c0 -32 -28 -38 -52 -38c-23 0 -28 41 -55 41c-108 0 -197 -163 -197 -269
c0 -38 17 -76 55 -76c76 0 139 53 213 53c17 0 31 -4 31 -27c0 -60 -111 -109 -181 -124c-11 -18 -28 -37 -32 -54c15 12 39 12 58 12c36 0 62 -50 62 -78c0 -75 -87 -125 -164 -125c-18 0 -68 7 -68 31z" />
    <glyph glyph-name="Egrave" unicode="&#xc8;" horiz-adv-x="579" 
d="M140 227c-31 6 -78 21 -78 61c0 34 66 60 84 67c1 15 6 85 8 99c0 2 -1 6 -1 7c-21 0 -40 -13 -62 -13s-71 13 -71 43c0 66 89 74 134 85c17 30 31 38 58 38c9 0 19 -1 32 -2l22 8c68 23 136 46 209 56h5c13 0 31 -6 31 -23c-1 -22 -23 -47 -43 -56l-182 -78
c-26 -11 -29 -33 -29 -55c0 -17 1 -37 1 -60l147 79c1 1 9 1 13 1c12 0 30 -5 30 -23c0 -61 -116 -130 -197 -178c-8 -28 -8 -47 -8 -76s0 -117 33 -117c2 0 9 1 10 1l63 35l154 137c10 9 22 13 35 14c12 0 21 -14 21 -25c0 -14 -16 -31 -21 -39
c-47 -89 -148 -222 -259 -222c-139 0 -128 136 -139 236zM233 779c42 -20 104 -59 104 -91c0 -18 -20 -32 -35 -32c-6 0 -12 2 -18 4c-25 13 -102 49 -102 74s18 46 41 46c3 0 7 0 10 -1z" />
    <glyph glyph-name="Eacute" unicode="&#xc9;" horiz-adv-x="579" 
d="M140 227c-31 6 -78 21 -78 61c0 34 66 60 84 67c1 15 6 85 8 99c0 2 -1 6 -1 7c-21 0 -40 -13 -62 -13s-71 13 -71 43c0 66 89 74 134 85c17 30 31 38 58 38c9 0 19 -1 32 -2l22 8c68 23 136 46 209 56h5c13 0 31 -6 31 -23c-1 -22 -23 -47 -43 -56l-182 -78
c-26 -11 -29 -33 -29 -55c0 -17 1 -37 1 -60l147 79c1 1 9 1 13 1c12 0 30 -5 30 -23c0 -61 -116 -130 -197 -178c-8 -28 -8 -47 -8 -76s0 -117 33 -117c2 0 9 1 10 1l63 35l154 137c10 9 22 13 35 14c12 0 21 -14 21 -25c0 -14 -16 -31 -21 -39
c-47 -89 -148 -222 -259 -222c-139 0 -128 136 -139 236zM253 779c3 1 7 1 10 1c23 0 41 -21 41 -46s-77 -61 -102 -74c-6 -2 -12 -4 -18 -4c-15 0 -35 14 -35 32c0 32 62 71 104 91z" />
    <glyph glyph-name="Ecircumflex" unicode="&#xca;" horiz-adv-x="579" 
d="M140 227c-31 6 -78 21 -78 61c0 34 66 60 84 67c1 15 6 85 8 99c0 2 -1 6 -1 7c-21 0 -40 -13 -62 -13s-71 13 -71 43c0 66 89 74 134 85c17 30 31 38 58 38c9 0 19 -1 32 -2l22 8c68 23 136 46 209 56h5c13 0 31 -6 31 -23c-1 -22 -23 -47 -43 -56l-182 -78
c-26 -11 -29 -33 -29 -55c0 -17 1 -37 1 -60l147 79c1 1 9 1 13 1c12 0 30 -5 30 -23c0 -61 -116 -130 -197 -178c-8 -28 -8 -47 -8 -76s0 -117 33 -117c2 0 9 1 10 1l63 35l154 137c10 9 22 13 35 14c12 0 21 -14 21 -25c0 -14 -16 -31 -21 -39
c-47 -89 -148 -222 -259 -222c-139 0 -128 136 -139 236zM106 698c0 6 0 12 6 18c15 18 86 101 102 118c5 7 30 30 43 35c48 0 44 -30 58 -64c13 -31 74 -86 74 -115c0 -13 -14 -18 -25 -18c-41 0 -94 76 -109 107c-27 -19 -73 -115 -104 -115c-18 0 -45 15 -45 34z" />
    <glyph glyph-name="Edieresis" unicode="&#xcb;" horiz-adv-x="579" 
d="M140 227c-31 6 -78 21 -78 61c0 34 66 60 84 67c1 15 6 85 8 99c0 2 -1 6 -1 7c-21 0 -40 -13 -62 -13s-71 13 -71 43c0 66 89 74 134 85c17 30 31 38 58 38c9 0 19 -1 32 -2l22 8c68 23 136 46 209 56h5c13 0 31 -6 31 -23c-1 -22 -23 -47 -43 -56l-182 -78
c-26 -11 -29 -33 -29 -55c0 -17 1 -37 1 -60l147 79c1 1 9 1 13 1c12 0 30 -5 30 -23c0 -61 -116 -130 -197 -178c-8 -28 -8 -47 -8 -76s0 -117 33 -117c2 0 9 1 10 1l63 35l154 137c10 9 22 13 35 14c12 0 21 -14 21 -25c0 -14 -16 -31 -21 -39
c-47 -89 -148 -222 -259 -222c-139 0 -128 136 -139 236zM121 704c0 17 19 27 39 27c22 0 46 -12 46 -39c0 -19 -15 -39 -37 -39h-5c-24 2 -43 32 -43 51zM321 655c-21 2 -42 27 -42 50c0 16 10 30 37 35c29 0 47 -14 47 -46c0 -19 -15 -39 -37 -39h-5z" />
    <glyph glyph-name="Igrave" unicode="&#xcc;" horiz-adv-x="186" 
d="M102 76c-63 0 -82 87 -82 191c0 134 31 297 40 345c4 22 21 42 44 42c26 0 62 -28 62 -55c0 -122 -37 -238 -37 -362c0 -61 14 -77 14 -126c0 -23 -21 -35 -41 -35zM97 809c42 -20 104 -59 104 -91c0 -18 -20 -32 -35 -32c-6 0 -12 2 -18 4c-25 13 -102 49 -102 74
s18 46 41 46c3 0 7 0 10 -1z" />
    <glyph glyph-name="Iacute" unicode="&#xcd;" horiz-adv-x="186" 
d="M102 76c-63 0 -82 87 -82 191c0 134 31 297 40 345c4 22 21 42 44 42c26 0 62 -28 62 -55c0 -122 -37 -238 -37 -362c0 -61 14 -77 14 -126c0 -23 -21 -35 -41 -35zM117 809c3 1 7 1 10 1c23 0 41 -21 41 -46s-77 -61 -102 -74c-6 -2 -12 -4 -18 -4c-15 0 -35 14 -35 32
c0 32 62 71 104 91z" />
    <glyph glyph-name="Icircumflex" unicode="&#xce;" horiz-adv-x="186" 
d="M102 76c-63 0 -82 87 -82 191c0 134 31 297 40 345c4 22 21 42 44 42c26 0 62 -28 62 -55c0 -122 -37 -238 -37 -362c0 -61 14 -77 14 -126c0 -23 -21 -35 -41 -35zM-30 710c0 6 0 12 6 18c15 18 86 101 102 118c5 7 30 30 43 35c48 0 44 -30 58 -64
c13 -31 74 -86 74 -115c0 -13 -14 -18 -25 -18c-41 0 -94 76 -109 107c-27 -19 -73 -115 -104 -115c-18 0 -45 15 -45 34z" />
    <glyph glyph-name="Idieresis" unicode="&#xcf;" horiz-adv-x="186" 
d="M102 76c-63 0 -82 87 -82 191c0 134 31 297 40 345c4 22 21 42 44 42c26 0 62 -28 62 -55c0 -122 -37 -238 -37 -362c0 -61 14 -77 14 -126c0 -23 -21 -35 -41 -35zM-15 734c0 17 19 27 39 27c22 0 46 -12 46 -39c0 -19 -15 -39 -37 -39h-5c-24 2 -43 32 -43 51zM185 685
c-21 2 -42 27 -42 50c0 16 10 30 37 35c29 0 47 -14 47 -46c0 -19 -15 -39 -37 -39h-5z" />
    <glyph glyph-name="Ntilde" unicode="&#xd1;" horiz-adv-x="504" 
d="M20 44c0 41 70 278 70 437c0 9 -1 18 -1 27v8c-1 3 -1 6 -1 10c0 32 31 67 63 67c118 0 64 -335 174 -372c45 411 66 413 96 413c32 0 63 -25 63 -62c0 -9 -16 -58 -17 -64c-16 -74 1 -420 -104 -420c-87 0 -159 101 -181 176c-2 -4 -9 -19 -52 -210
c-6 -28 -19 -50 -47 -50h-4c-26 1 -59 5 -59 40zM225 712c-18 0 7 -60 -35 -60c-13 0 -42 21 -42 36c0 40 15 93 68 93c48 0 71 -49 106 -77c14 0 41 57 62 72c1 0 5 1 5 1c23 0 24 -31 24 -44c0 -40 -31 -97 -82 -97c-50 0 -97 76 -106 76z" />
    <glyph glyph-name="Ograve" unicode="&#xd2;" horiz-adv-x="552" 
d="M20 246v6c0 257 182 410 330 410c125 0 182 -104 182 -225c0 -177 -122 -395 -332 -395c-120 0 -180 87 -180 204zM128 256c0 -61 16 -117 85 -117c109 0 221 191 221 317c0 62 -27 108 -94 108c-120 0 -212 -211 -212 -308zM303 813c42 -20 104 -59 104 -91
c0 -18 -20 -32 -35 -32c-6 0 -12 2 -18 4c-25 13 -102 49 -102 74s18 46 41 46c3 0 7 0 10 -1z" />
    <glyph glyph-name="Oacute" unicode="&#xd3;" horiz-adv-x="552" 
d="M20 246v6c0 257 182 410 330 410c125 0 182 -104 182 -225c0 -177 -122 -395 -332 -395c-120 0 -180 87 -180 204zM128 256c0 -61 16 -117 85 -117c109 0 221 191 221 317c0 62 -27 108 -94 108c-120 0 -212 -211 -212 -308zM323 813c3 1 7 1 10 1c23 0 41 -21 41 -46
s-77 -61 -102 -74c-6 -2 -12 -4 -18 -4c-15 0 -35 14 -35 32c0 32 62 71 104 91z" />
    <glyph glyph-name="Ocircumflex" unicode="&#xd4;" horiz-adv-x="552" 
d="M20 246v6c0 257 182 410 330 410c125 0 182 -104 182 -225c0 -177 -122 -395 -332 -395c-120 0 -180 87 -180 204zM128 256c0 -61 16 -117 85 -117c109 0 221 191 221 317c0 62 -27 108 -94 108c-120 0 -212 -211 -212 -308zM176 714c0 6 0 12 6 18c15 18 86 101 102 118
c5 7 30 30 43 35c48 0 44 -30 58 -64c13 -31 74 -86 74 -115c0 -13 -14 -18 -25 -18c-41 0 -94 76 -109 107c-27 -19 -73 -115 -104 -115c-18 0 -45 15 -45 34z" />
    <glyph glyph-name="Otilde" unicode="&#xd5;" horiz-adv-x="552" 
d="M20 246v6c0 257 182 410 330 410c125 0 182 -104 182 -225c0 -177 -122 -395 -332 -395c-120 0 -180 87 -180 204zM128 256c0 -61 16 -117 85 -117c109 0 221 191 221 317c0 62 -27 108 -94 108c-120 0 -212 -211 -212 -308zM255 766c-18 0 7 -60 -35 -60
c-13 0 -42 21 -42 36c0 40 15 93 68 93c48 0 71 -49 106 -77c14 0 41 57 62 72c1 0 5 1 5 1c23 0 24 -31 24 -44c0 -40 -31 -97 -82 -97c-50 0 -97 76 -106 76z" />
    <glyph glyph-name="Odieresis" unicode="&#xd6;" horiz-adv-x="552" 
d="M20 246v6c0 257 182 410 330 410c125 0 182 -104 182 -225c0 -177 -122 -395 -332 -395c-120 0 -180 87 -180 204zM128 256c0 -61 16 -117 85 -117c109 0 221 191 221 317c0 62 -27 108 -94 108c-120 0 -212 -211 -212 -308zM191 738c0 17 19 27 39 27
c22 0 46 -12 46 -39c0 -19 -15 -39 -37 -39h-5c-24 2 -43 32 -43 51zM391 689c-21 2 -42 27 -42 50c0 16 10 30 37 35c29 0 47 -14 47 -46c0 -19 -15 -39 -37 -39h-5z" />
    <glyph glyph-name="Oslash" unicode="&#xd8;" horiz-adv-x="552" 
d="M189 2c-27 2 -56 6 -56 40c0 3 0 6 1 10c-76 27 -114 101 -114 194v6c0 246 167 397 312 409l4 14c3 13 14 42 32 42c26 0 53 -16 53 -45c0 -2 -1 -7 -1 -8l-5 -14c80 -30 117 -116 117 -213c0 -171 -114 -380 -310 -394c-13 -35 -20 -41 -33 -41zM434 456
c0 46 -15 83 -50 99c-65 -197 -104 -325 -129 -407c94 40 179 198 179 308zM128 256c0 -44 8 -86 38 -105c35 101 90 251 137 406c-102 -37 -175 -215 -175 -301z" />
    <glyph glyph-name="Ugrave" unicode="&#xd9;" 
d="M20 205c11 145 41 258 52 392c1 19 35 24 49 25c20 -1 53 -29 53 -55c-9 -123 -53 -243 -53 -374c0 -34 3 -71 19 -71c52 0 178 190 178 417c-1 17 -1 60 -1 67c5 27 32 40 54 40c31 0 57 -25 59 -57l4 -479s1 -2 1 -3c-2 -15 -23 -31 -35 -31c-14 0 -49 19 -52 32
l-2 161c-20 -75 -109 -252 -202 -252c-95 0 -124 94 -124 188zM227 783c42 -20 104 -59 104 -91c0 -18 -20 -32 -35 -32c-6 0 -12 2 -18 4c-25 13 -102 49 -102 74s18 46 41 46c3 0 7 0 10 -1z" />
    <glyph glyph-name="Uacute" unicode="&#xda;" 
d="M20 205c11 145 41 258 52 392c1 19 35 24 49 25c20 -1 53 -29 53 -55c-9 -123 -53 -243 -53 -374c0 -34 3 -71 19 -71c52 0 178 190 178 417c-1 17 -1 60 -1 67c5 27 32 40 54 40c31 0 57 -25 59 -57l4 -479s1 -2 1 -3c-2 -15 -23 -31 -35 -31c-14 0 -49 19 -52 32
l-2 161c-20 -75 -109 -252 -202 -252c-95 0 -124 94 -124 188zM247 783c3 1 7 1 10 1c23 0 41 -21 41 -46s-77 -61 -102 -74c-6 -2 -12 -4 -18 -4c-15 0 -35 14 -35 32c0 32 62 71 104 91z" />
    <glyph glyph-name="Ucircumflex" unicode="&#xdb;" 
d="M20 205c11 145 41 258 52 392c1 19 35 24 49 25c20 -1 53 -29 53 -55c-9 -123 -53 -243 -53 -374c0 -34 3 -71 19 -71c52 0 178 190 178 417c-1 17 -1 60 -1 67c5 27 32 40 54 40c31 0 57 -25 59 -57l4 -479s1 -2 1 -3c-2 -15 -23 -31 -35 -31c-14 0 -49 19 -52 32
l-2 161c-20 -75 -109 -252 -202 -252c-95 0 -124 94 -124 188zM100 684c0 6 0 12 6 18c15 18 86 101 102 118c5 7 30 30 43 35c48 0 44 -30 58 -64c13 -31 74 -86 74 -115c0 -13 -14 -18 -25 -18c-41 0 -94 76 -109 107c-27 -19 -73 -115 -104 -115c-18 0 -45 15 -45 34z
" />
    <glyph glyph-name="Udieresis" unicode="&#xdc;" 
d="M20 205c11 145 41 258 52 392c1 19 35 24 49 25c20 -1 53 -29 53 -55c-9 -123 -53 -243 -53 -374c0 -34 3 -71 19 -71c52 0 178 190 178 417c-1 17 -1 60 -1 67c5 27 32 40 54 40c31 0 57 -25 59 -57l4 -479s1 -2 1 -3c-2 -15 -23 -31 -35 -31c-14 0 -49 19 -52 32
l-2 161c-20 -75 -109 -252 -202 -252c-95 0 -124 94 -124 188zM115 708c0 17 19 27 39 27c22 0 46 -12 46 -39c0 -19 -15 -39 -37 -39h-5c-24 2 -43 32 -43 51zM315 659c-21 2 -42 27 -42 50c0 16 10 30 37 35c29 0 47 -14 47 -46c0 -19 -15 -39 -37 -39h-5z" />
    <glyph glyph-name="Yacute" unicode="&#xdd;" horiz-adv-x="510" 
d="M121 242c-1 51 -62 86 -100 341c0 1 -1 4 -1 8v9c0 44 0 75 41 75c91 0 84 -136 119 -329c11 0 156 286 173 318c19 37 40 67 83 67c25 0 54 -28 54 -54c0 -17 -25 -52 -40 -69l-216 -395l-10 -184c-1 -18 -21 -27 -36 -27c-63 0 -68 45 -68 97c0 22 1 122 1 143z
M237 837c3 1 7 1 10 1c23 0 41 -21 41 -46s-77 -61 -102 -74c-6 -2 -12 -4 -18 -4c-15 0 -35 14 -35 32c0 32 62 71 104 91z" />
    <glyph glyph-name="germandbls" unicode="&#xdf;" horiz-adv-x="587" 
d="M22 -50c-1 21 -2 121 -2 144c0 116 9 228 30 355c18 107 61 267 192 267c62 0 144 -19 154 -96v-19c0 -52 -11 -104 -33 -152c8 1 15 1 24 1c76 0 180 -22 180 -116v-8c-8 -120 -117 -295 -250 -295c-48 0 -91 30 -91 83c0 16 13 35 31 35c23 0 22 -36 40 -36
c78 0 162 138 162 209v10c0 16 -1 28 -22 29h-6c-100 0 -176 -104 -216 -104c-35 0 -73 12 -73 55c0 3 1 17 2 20c74 63 123 137 144 235c-4 36 2 53 -33 53c-8 0 -15 -1 -22 -8c-100 -71 -110 -383 -110 -482c0 -59 8 -115 8 -174c0 -28 -20 -47 -48 -47
c-24 0 -49 25 -61 41z" />
    <glyph glyph-name="agrave" unicode="&#xe0;" horiz-adv-x="532" 
d="M20 100v15c2 34 83 304 88 315c4 11 40 93 52 117c23 48 70 147 135 147c52 0 79 -34 92 -81l125 -461c0 -25 0 -52 -30 -52c-38 0 -62 40 -73 74c-5 15 -26 86 -30 102h-7c-61 -21 -145 -34 -205 -66c-37 -49 -5 -169 -85 -169c-30 0 -62 27 -62 59zM291 547l-14 -14
c-3 -3 -39 -80 -51 -110c-6 -12 -26 -68 -30 -81l154 22zM275 849c42 -20 104 -59 104 -91c0 -18 -20 -32 -35 -32c-6 0 -12 2 -18 4c-25 13 -102 49 -102 74s18 46 41 46c3 0 7 0 10 -1z" />
    <glyph glyph-name="aacute" unicode="&#xe1;" horiz-adv-x="532" 
d="M20 100v15c2 34 83 304 88 315c4 11 40 93 52 117c23 48 70 147 135 147c52 0 79 -34 92 -81l125 -461c0 -25 0 -52 -30 -52c-38 0 -62 40 -73 74c-5 15 -26 86 -30 102h-7c-61 -21 -145 -34 -205 -66c-37 -49 -5 -169 -85 -169c-30 0 -62 27 -62 59zM291 547l-14 -14
c-3 -3 -39 -80 -51 -110c-6 -12 -26 -68 -30 -81l154 22zM295 849c3 1 7 1 10 1c23 0 41 -21 41 -46s-77 -61 -102 -74c-6 -2 -12 -4 -18 -4c-15 0 -35 14 -35 32c0 32 62 71 104 91z" />
    <glyph glyph-name="acircumflex" unicode="&#xe2;" horiz-adv-x="532" 
d="M20 100v15c2 34 83 304 88 315c4 11 40 93 52 117c23 48 70 147 135 147c52 0 79 -34 92 -81l125 -461c0 -25 0 -52 -30 -52c-38 0 -62 40 -73 74c-5 15 -26 86 -30 102h-7c-61 -21 -145 -34 -205 -66c-37 -49 -5 -169 -85 -169c-30 0 -62 27 -62 59zM291 547l-14 -14
c-3 -3 -39 -80 -51 -110c-6 -12 -26 -68 -30 -81l154 22zM148 750c0 6 0 12 6 18c15 18 86 101 102 118c5 7 30 30 43 35c48 0 44 -30 58 -64c13 -31 74 -86 74 -115c0 -13 -14 -18 -25 -18c-41 0 -94 76 -109 107c-27 -19 -73 -115 -104 -115c-18 0 -45 15 -45 34z" />
    <glyph glyph-name="atilde" unicode="&#xe3;" horiz-adv-x="532" 
d="M20 100v15c2 34 83 304 88 315c4 11 40 93 52 117c23 48 70 147 135 147c52 0 79 -34 92 -81l125 -461c0 -25 0 -52 -30 -52c-38 0 -62 40 -73 74c-5 15 -26 86 -30 102h-7c-61 -21 -145 -34 -205 -66c-37 -49 -5 -169 -85 -169c-30 0 -62 27 -62 59zM291 547l-14 -14
c-3 -3 -39 -80 -51 -110c-6 -12 -26 -68 -30 -81l154 22zM227 802c-18 0 7 -60 -35 -60c-13 0 -42 21 -42 36c0 40 15 93 68 93c48 0 71 -49 106 -77c14 0 41 57 62 72c1 0 5 1 5 1c23 0 24 -31 24 -44c0 -40 -31 -97 -82 -97c-50 0 -97 76 -106 76z" />
    <glyph glyph-name="adieresis" unicode="&#xe4;" horiz-adv-x="532" 
d="M20 100v15c2 34 83 304 88 315c4 11 40 93 52 117c23 48 70 147 135 147c52 0 79 -34 92 -81l125 -461c0 -25 0 -52 -30 -52c-38 0 -62 40 -73 74c-5 15 -26 86 -30 102h-7c-61 -21 -145 -34 -205 -66c-37 -49 -5 -169 -85 -169c-30 0 -62 27 -62 59zM291 547l-14 -14
c-3 -3 -39 -80 -51 -110c-6 -12 -26 -68 -30 -81l154 22zM163 774c0 17 19 27 39 27c22 0 46 -12 46 -39c0 -19 -15 -39 -37 -39h-5c-24 2 -43 32 -43 51zM363 725c-21 2 -42 27 -42 50c0 16 10 30 37 35c29 0 47 -14 47 -46c0 -19 -15 -39 -37 -39h-5z" />
    <glyph glyph-name="aring" unicode="&#xe5;" horiz-adv-x="532" 
d="M176 720c0 62 63 119 131 119c49 0 105 -19 105 -73c0 -35 -22 -72 -53 -98c13 -14 22 -33 28 -55l125 -461c0 -25 0 -52 -30 -52c-38 0 -62 40 -73 74c-5 15 -26 86 -30 102h-7c-61 -21 -145 -34 -205 -66c-37 -49 -5 -169 -85 -169c-30 0 -62 27 -62 59v15
c30 145 89 329 140 432c1 1 1 3 2 5c12 25 30 63 54 93c-25 16 -40 44 -40 75zM291 547l-14 -14c-3 -3 -39 -80 -51 -110c-6 -12 -26 -68 -30 -81l154 22zM245 716c0 -14 6 -26 25 -27c30 10 79 34 79 76c0 12 -8 23 -28 27c-35 0 -76 -36 -76 -76z" />
    <glyph glyph-name="ae" unicode="&#xe6;" horiz-adv-x="728" 
d="M440 9c-121 0 -166 108 -179 209v15c-34 -9 -67 -20 -94 -34c-37 -49 -5 -169 -85 -169c-30 0 -62 27 -62 59v15c30 145 89 329 140 432c23 48 70 147 135 147c28 0 56 -12 73 -30c100 38 186 71 292 71c20 0 48 -2 48 -21c0 -52 -270 -123 -307 -145
c-12 -63 -16 -88 -17 -142c0 -5 0 -28 1 -34c72 19 147 78 215 78c20 0 41 -19 41 -40c0 -6 -30 -47 -62 -61l-204 -85c-2 -107 -2 -108 -2 -108c0 -27 31 -63 58 -63c29 0 35 10 63 34c20 17 107 96 124 113c2 1 11 1 13 1c20 0 42 -23 42 -43c0 -28 -50 -86 -63 -100
c-48 -52 -96 -99 -170 -99zM267 340c8 72 23 156 42 228c-17 -17 -71 -126 -83 -156c-6 -12 -26 -68 -30 -81z" />
    <glyph glyph-name="ccedilla" unicode="&#xe7;" horiz-adv-x="513" 
d="M140 -152c0 21 146 2 162 104c-15 -4 -47 -18 -70 -21c-25 0 -59 9 -59 45v6c3 30 15 60 31 88c-98 26 -184 109 -184 224c0 172 118 336 286 336c75 0 155 -38 155 -135c0 -19 -15 -30 -33 -30c-1 0 -7 1 -8 1c-23 22 -46 57 -99 57c-4 0 -9 -1 -13 -1
c-109 -11 -169 -119 -169 -233c0 -90 66 -125 135 -125c27 0 127 26 182 26c22 0 37 -4 37 -16c0 -90 -140 -111 -210 -113c-11 -18 -27 -37 -31 -53c15 12 39 12 58 12c36 0 62 -50 62 -78c0 -75 -87 -125 -164 -125c-18 0 -68 7 -68 31z" />
    <glyph glyph-name="egrave" unicode="&#xe8;" horiz-adv-x="556" 
d="M88 215c-37 10 -68 27 -68 69c0 13 46 30 70 39c22 36 22 96 22 137v9c0 26 -80 27 -80 66c0 46 77 45 91 78c9 23 2 37 34 39c10 0 57 -1 67 -1c94 30 166 58 264 58c20 0 48 -2 48 -21c0 -52 -270 -123 -307 -145c-12 -63 -16 -88 -17 -142c0 -5 0 -28 1 -34
c72 19 147 78 215 78c20 0 41 -19 41 -40c0 -6 -30 -47 -62 -61l-204 -85c-2 -107 -2 -108 -2 -108c0 -27 31 -63 58 -63c29 0 35 10 63 34c20 17 107 96 124 113c2 1 11 1 13 1c20 0 42 -23 42 -43c0 -28 -50 -86 -63 -100c-48 -52 -96 -99 -170 -99
c-125 0 -169 117 -180 221zM253 829c42 -20 104 -59 104 -91c0 -18 -20 -32 -35 -32c-6 0 -12 2 -18 4c-25 13 -102 49 -102 74s18 46 41 46c3 0 7 0 10 -1z" />
    <glyph glyph-name="eacute" unicode="&#xe9;" horiz-adv-x="556" 
d="M88 215c-37 10 -68 27 -68 69c0 13 46 30 70 39c22 36 22 96 22 137v9c0 26 -80 27 -80 66c0 46 77 45 91 78c9 23 2 37 34 39c10 0 57 -1 67 -1c94 30 166 58 264 58c20 0 48 -2 48 -21c0 -52 -270 -123 -307 -145c-12 -63 -16 -88 -17 -142c0 -5 0 -28 1 -34
c72 19 147 78 215 78c20 0 41 -19 41 -40c0 -6 -30 -47 -62 -61l-204 -85c-2 -107 -2 -108 -2 -108c0 -27 31 -63 58 -63c29 0 35 10 63 34c20 17 107 96 124 113c2 1 11 1 13 1c20 0 42 -23 42 -43c0 -28 -50 -86 -63 -100c-48 -52 -96 -99 -170 -99
c-125 0 -169 117 -180 221zM273 829c3 1 7 1 10 1c23 0 41 -21 41 -46s-77 -61 -102 -74c-6 -2 -12 -4 -18 -4c-15 0 -35 14 -35 32c0 32 62 71 104 91z" />
    <glyph glyph-name="ecircumflex" unicode="&#xea;" horiz-adv-x="556" 
d="M88 215c-37 10 -68 27 -68 69c0 13 46 30 70 39c22 36 22 96 22 137v9c0 26 -80 27 -80 66c0 46 77 45 91 78c9 23 2 37 34 39c10 0 57 -1 67 -1c94 30 166 58 264 58c20 0 48 -2 48 -21c0 -52 -270 -123 -307 -145c-12 -63 -16 -88 -17 -142c0 -5 0 -28 1 -34
c72 19 147 78 215 78c20 0 41 -19 41 -40c0 -6 -30 -47 -62 -61l-204 -85c-2 -107 -2 -108 -2 -108c0 -27 31 -63 58 -63c29 0 35 10 63 34c20 17 107 96 124 113c2 1 11 1 13 1c20 0 42 -23 42 -43c0 -28 -50 -86 -63 -100c-48 -52 -96 -99 -170 -99
c-125 0 -169 117 -180 221zM126 730c0 6 0 12 6 18c15 18 86 101 102 118c5 7 30 30 43 35c48 0 44 -30 58 -64c13 -31 74 -86 74 -115c0 -13 -14 -18 -25 -18c-41 0 -94 76 -109 107c-27 -19 -73 -115 -104 -115c-18 0 -45 15 -45 34z" />
    <glyph glyph-name="edieresis" unicode="&#xeb;" horiz-adv-x="556" 
d="M88 215c-37 10 -68 27 -68 69c0 13 46 30 70 39c22 36 22 96 22 137v9c0 26 -80 27 -80 66c0 46 77 45 91 78c9 23 2 37 34 39c10 0 57 -1 67 -1c94 30 166 58 264 58c20 0 48 -2 48 -21c0 -52 -270 -123 -307 -145c-12 -63 -16 -88 -17 -142c0 -5 0 -28 1 -34
c72 19 147 78 215 78c20 0 41 -19 41 -40c0 -6 -30 -47 -62 -61l-204 -85c-2 -107 -2 -108 -2 -108c0 -27 31 -63 58 -63c29 0 35 10 63 34c20 17 107 96 124 113c2 1 11 1 13 1c20 0 42 -23 42 -43c0 -28 -50 -86 -63 -100c-48 -52 -96 -99 -170 -99
c-125 0 -169 117 -180 221zM141 754c0 17 19 27 39 27c22 0 46 -12 46 -39c0 -19 -15 -39 -37 -39h-5c-24 2 -43 32 -43 51zM341 705c-21 2 -42 27 -42 50c0 16 10 30 37 35c29 0 47 -14 47 -46c0 -19 -15 -39 -37 -39h-5z" />
    <glyph glyph-name="igrave" unicode="&#xec;" horiz-adv-x="203" 
d="M20 79v13c0 160 21 319 55 485c6 29 11 41 39 41c39 0 69 -34 69 -72v-4c-7 -159 -39 -319 -46 -479c-1 -23 -20 -57 -47 -57c-31 0 -69 41 -70 73zM113 785c42 -20 104 -59 104 -91c0 -18 -20 -32 -35 -32c-6 0 -12 2 -18 4c-25 13 -102 49 -102 74s18 46 41 46
c3 0 7 0 10 -1z" />
    <glyph glyph-name="iacute" unicode="&#xed;" horiz-adv-x="203" 
d="M20 79v13c0 160 21 319 55 485c6 29 11 41 39 41c39 0 69 -34 69 -72v-4c-7 -159 -39 -319 -46 -479c-1 -23 -20 -57 -47 -57c-31 0 -69 41 -70 73zM133 785c3 1 7 1 10 1c23 0 41 -21 41 -46s-77 -61 -102 -74c-6 -2 -12 -4 -18 -4c-15 0 -35 14 -35 32
c0 32 62 71 104 91z" />
    <glyph glyph-name="icircumflex" unicode="&#xee;" horiz-adv-x="203" 
d="M20 79v13c0 160 21 319 55 485c6 29 11 41 39 41c39 0 69 -34 69 -72v-4c-7 -159 -39 -319 -46 -479c-1 -23 -20 -57 -47 -57c-31 0 -69 41 -70 73zM-14 686c0 6 0 12 6 18c15 18 86 101 102 118c5 7 30 30 43 35c48 0 44 -30 58 -64c13 -31 74 -86 74 -115
c0 -13 -14 -18 -25 -18c-41 0 -94 76 -109 107c-27 -19 -73 -115 -104 -115c-18 0 -45 15 -45 34z" />
    <glyph glyph-name="idieresis" unicode="&#xef;" horiz-adv-x="203" 
d="M20 79v13c0 160 21 319 55 485c6 29 11 41 39 41c39 0 69 -34 69 -72v-4c-7 -159 -39 -319 -46 -479c-1 -23 -20 -57 -47 -57c-31 0 -69 41 -70 73zM1 710c0 17 19 27 39 27c22 0 46 -12 46 -39c0 -19 -15 -39 -37 -39h-5c-24 2 -43 32 -43 51zM201 661
c-21 2 -42 27 -42 50c0 16 10 30 37 35c29 0 47 -14 47 -46c0 -19 -15 -39 -37 -39h-5z" />
    <glyph glyph-name="ntilde" unicode="&#xf1;" horiz-adv-x="570" 
d="M176 270l-34 -133c-7 -27 -33 -107 -72 -107c-5 0 -11 2 -17 6c-24 14 -33 20 -33 35c0 16 9 41 95 435c3 15 17 38 36 41c76 -3 75 -96 85 -138l4 -11c26 -82 67 -207 99 -255l87 393c8 36 27 117 80 117c21 0 44 -21 44 -46c0 -86 -74 -310 -96 -411
c-12 -54 -14 -189 -73 -189c-56 0 -105 50 -126 98c-14 24 -68 140 -79 165zM267 680c-18 0 7 -60 -35 -60c-13 0 -42 21 -42 36c0 40 15 93 68 93c48 0 71 -49 106 -77c14 0 41 57 62 72c1 0 5 1 5 1c23 0 24 -31 24 -44c0 -40 -31 -97 -82 -97c-50 0 -97 76 -106 76z" />
    <glyph glyph-name="ograve" unicode="&#xf2;" horiz-adv-x="528" 
d="M20 297c7 171 95 377 279 377h7c109 -7 202 -125 202 -261c0 -158 -117 -350 -293 -350h-8c-118 4 -187 118 -187 225v9zM137 295v-6c0 -86 27 -119 62 -119c73 0 185 138 188 233v14c0 63 -20 148 -99 148c-88 0 -149 -207 -151 -270zM271 833c42 -20 104 -59 104 -91
c0 -18 -20 -32 -35 -32c-6 0 -12 2 -18 4c-25 13 -102 49 -102 74s18 46 41 46c3 0 7 0 10 -1z" />
    <glyph glyph-name="oacute" unicode="&#xf3;" horiz-adv-x="528" 
d="M20 297c7 171 95 377 279 377h7c109 -7 202 -125 202 -261c0 -158 -117 -350 -293 -350h-8c-118 4 -187 118 -187 225v9zM137 295v-6c0 -86 27 -119 62 -119c73 0 185 138 188 233v14c0 63 -20 148 -99 148c-88 0 -149 -207 -151 -270zM291 833c3 1 7 1 10 1
c23 0 41 -21 41 -46s-77 -61 -102 -74c-6 -2 -12 -4 -18 -4c-15 0 -35 14 -35 32c0 32 62 71 104 91z" />
    <glyph glyph-name="ocircumflex" unicode="&#xf4;" horiz-adv-x="528" 
d="M20 297c7 171 95 377 279 377h7c109 -7 202 -125 202 -261c0 -158 -117 -350 -293 -350h-8c-118 4 -187 118 -187 225v9zM137 295v-6c0 -86 27 -119 62 -119c73 0 185 138 188 233v14c0 63 -20 148 -99 148c-88 0 -149 -207 -151 -270zM144 734c0 6 0 12 6 18
c15 18 86 101 102 118c5 7 30 30 43 35c48 0 44 -30 58 -64c13 -31 74 -86 74 -115c0 -13 -14 -18 -25 -18c-41 0 -94 76 -109 107c-27 -19 -73 -115 -104 -115c-18 0 -45 15 -45 34z" />
    <glyph glyph-name="otilde" unicode="&#xf5;" horiz-adv-x="528" 
d="M20 297c7 171 95 377 279 377h7c109 -7 202 -125 202 -261c0 -158 -117 -350 -293 -350h-8c-118 4 -187 118 -187 225v9zM137 295v-6c0 -86 27 -119 62 -119c73 0 185 138 188 233v14c0 63 -20 148 -99 148c-88 0 -149 -207 -151 -270zM223 786c-18 0 7 -60 -35 -60
c-13 0 -42 21 -42 36c0 40 15 93 68 93c48 0 71 -49 106 -77c14 0 41 57 62 72c1 0 5 1 5 1c23 0 24 -31 24 -44c0 -40 -31 -97 -82 -97c-50 0 -97 76 -106 76z" />
    <glyph glyph-name="odieresis" unicode="&#xf6;" horiz-adv-x="528" 
d="M20 297c7 171 95 377 279 377h7c109 -7 202 -125 202 -261c0 -158 -117 -350 -293 -350h-8c-118 4 -187 118 -187 225v9zM137 295v-6c0 -86 27 -119 62 -119c73 0 185 138 188 233v14c0 63 -20 148 -99 148c-88 0 -149 -207 -151 -270zM159 758c0 17 19 27 39 27
c22 0 46 -12 46 -39c0 -19 -15 -39 -37 -39h-5c-24 2 -43 32 -43 51zM359 709c-21 2 -42 27 -42 50c0 16 10 30 37 35c29 0 47 -14 47 -46c0 -19 -15 -39 -37 -39h-5z" />
    <glyph glyph-name="oslash" unicode="&#xf8;" horiz-adv-x="528" 
d="M217 63c-10 -33 -31 -47 -50 -47c-22 0 -42 17 -42 42c0 8 2 16 6 25c-71 38 -111 123 -111 205v9c7 171 95 377 279 377h7l17 -2c0 1 0 2 1 3c3 13 14 42 32 42c26 0 53 -16 53 -45c0 -2 -1 -7 -1 -8l-9 -26c64 -46 109 -131 109 -225c0 -158 -116 -349 -291 -350z
M137 295v-6c0 -56 11 -90 29 -106c35 101 85 240 127 382h-5c-88 0 -149 -207 -151 -270zM387 417c0 35 -6 77 -25 107c-49 -151 -82 -256 -105 -333c63 43 127 140 130 212v14z" />
    <glyph glyph-name="ugrave" unicode="&#xf9;" horiz-adv-x="435" 
d="M20 236v12c0 153 43 350 52 350c0 1 38 8 53 8c36 0 64 -16 64 -53c0 -27 -15 -48 -22 -74c-24 -95 -41 -189 -41 -287c0 -7 1 -13 1 -16c0 -2 10 -36 23 -36c122 90 162 323 167 462c15 13 23 15 39 15c28 0 59 -27 59 -56c0 -89 -10 -142 -33 -235
c-5 -19 -36 -107 -44 -125c-32 -69 -93 -167 -178 -167c-117 0 -140 108 -140 202zM225 757c42 -20 104 -59 104 -91c0 -18 -20 -32 -35 -32c-6 0 -12 2 -18 4c-25 13 -102 49 -102 74s18 46 41 46c3 0 7 0 10 -1z" />
    <glyph glyph-name="uacute" unicode="&#xfa;" horiz-adv-x="435" 
d="M20 236v12c0 153 43 350 52 350c0 1 38 8 53 8c36 0 64 -16 64 -53c0 -27 -15 -48 -22 -74c-24 -95 -41 -189 -41 -287c0 -7 1 -13 1 -16c0 -2 10 -36 23 -36c122 90 162 323 167 462c15 13 23 15 39 15c28 0 59 -27 59 -56c0 -89 -10 -142 -33 -235
c-5 -19 -36 -107 -44 -125c-32 -69 -93 -167 -178 -167c-117 0 -140 108 -140 202zM245 757c3 1 7 1 10 1c23 0 41 -21 41 -46s-77 -61 -102 -74c-6 -2 -12 -4 -18 -4c-15 0 -35 14 -35 32c0 32 62 71 104 91z" />
    <glyph glyph-name="ucircumflex" unicode="&#xfb;" horiz-adv-x="435" 
d="M20 236v12c0 153 43 350 52 350c0 1 38 8 53 8c36 0 64 -16 64 -53c0 -27 -15 -48 -22 -74c-24 -95 -41 -189 -41 -287c0 -7 1 -13 1 -16c0 -2 10 -36 23 -36c122 90 162 323 167 462c15 13 23 15 39 15c28 0 59 -27 59 -56c0 -89 -10 -142 -33 -235
c-5 -19 -36 -107 -44 -125c-32 -69 -93 -167 -178 -167c-117 0 -140 108 -140 202zM98 658c0 6 0 12 6 18c15 18 86 101 102 118c5 7 30 30 43 35c48 0 44 -30 58 -64c13 -31 74 -86 74 -115c0 -13 -14 -18 -25 -18c-41 0 -94 76 -109 107c-27 -19 -73 -115 -104 -115
c-18 0 -45 15 -45 34z" />
    <glyph glyph-name="udieresis" unicode="&#xfc;" horiz-adv-x="435" 
d="M20 236v12c0 153 43 350 52 350c0 1 38 8 53 8c36 0 64 -16 64 -53c0 -27 -15 -48 -22 -74c-24 -95 -41 -189 -41 -287c0 -7 1 -13 1 -16c0 -2 10 -36 23 -36c122 90 162 323 167 462c15 13 23 15 39 15c28 0 59 -27 59 -56c0 -89 -10 -142 -33 -235
c-5 -19 -36 -107 -44 -125c-32 -69 -93 -167 -178 -167c-117 0 -140 108 -140 202zM113 682c0 17 19 27 39 27c22 0 46 -12 46 -39c0 -19 -15 -39 -37 -39h-5c-24 2 -43 32 -43 51zM313 633c-21 2 -42 27 -42 50c0 16 10 30 37 35c29 0 47 -14 47 -46c0 -19 -15 -39 -37 -39
h-5z" />
    <glyph glyph-name="yacute" unicode="&#xfd;" horiz-adv-x="520" 
d="M20 562c0 37 3 67 48 67c85 0 63 -98 71 -151c9 -63 29 -118 65 -172c162 329 182 394 227 394c43 0 69 -20 69 -62c0 -34 -82 -125 -222 -461c0 0 -1 -7 -1 -10c0 -49 31 -94 31 -143c0 -25 -27 -47 -52 -47c-71 0 -78 157 -95 208c-1 3 -12 24 -15 28
c-71 109 -126 215 -126 349zM241 797c3 1 7 1 10 1c23 0 41 -21 41 -46s-77 -61 -102 -74c-6 -2 -12 -4 -18 -4c-15 0 -35 14 -35 32c0 32 62 71 104 91z" />
    <glyph glyph-name="ydieresis" unicode="&#xff;" horiz-adv-x="520" 
d="M20 562c0 37 3 67 48 67c85 0 63 -98 71 -151c9 -63 29 -118 65 -172c162 329 182 394 227 394c43 0 69 -20 69 -62c0 -34 -82 -125 -222 -461c0 0 -1 -7 -1 -10c0 -49 31 -94 31 -143c0 -25 -27 -47 -52 -47c-71 0 -78 157 -95 208c-1 3 -12 24 -15 28
c-71 109 -126 215 -126 349zM109 722c0 17 19 27 39 27c22 0 46 -12 46 -39c0 -19 -15 -39 -37 -39h-5c-24 2 -43 32 -43 51zM309 673c-21 2 -42 27 -42 50c0 16 10 30 37 35c29 0 47 -14 47 -46c0 -19 -15 -39 -37 -39h-5z" />
    <glyph glyph-name="OE" unicode="&#x152;" horiz-adv-x="793" 
d="M469 28c-66 0 -101 28 -119 90c-23 -13 -51 -19 -92 -19c-133 0 -238 98 -238 230v11c5 133 115 339 276 339c23 0 45 -3 65 -7c9 12 20 19 35 19c10 0 21 -1 35 -2l24 8c74 25 148 49 227 60h5c14 0 34 -6 34 -24c-1 -24 -25 -51 -47 -60l-197 -83
c-28 -12 -32 -35 -32 -59c0 -18 1 -39 1 -63l160 84c1 1 10 1 14 1c13 0 33 -6 33 -25c0 -65 -126 -138 -214 -189c-5 -12 -10 -54 -10 -96c0 -54 8 -110 37 -110c31 0 45 1 246 184c11 10 24 14 38 15c13 0 23 -14 23 -26c0 -15 -17 -33 -23 -42
c-51 -94 -160 -236 -281 -236zM141 346v-11c0 -91 40 -128 89 -128c38 0 73 18 103 48c-1 22 -2 45 -2 73c0 53 2 123 4 247c-105 -10 -190 -132 -194 -229z" />
    <glyph glyph-name="oe" unicode="&#x153;" horiz-adv-x="860" 
d="M497 9c-66 0 -168 53 -168 130v34c-48 -34 -99 -55 -144 -55c-104 0 -165 79 -165 173c0 132 100 396 382 396c43 0 53 -24 79 -24c2 0 10 1 12 1c92 29 241 69 310 69c28 0 37 -10 37 -24c0 -23 -27 -55 -43 -61l-320 -113s-15 -90 -15 -115h8l235 76c9 7 14 9 24 9
c16 0 23 -20 23 -35c0 -29 -12 -53 -39 -65l-259 -114c-8 -4 -9 -30 -9 -65v-42c0 -30 4 -69 27 -69c78 0 146 131 218 131c15 0 16 -10 16 -22c0 -82 -130 -215 -209 -215zM128 278c0 -33 19 -61 53 -61c43 0 96 37 137 85c-11 12 -17 25 -17 44c0 20 21 27 32 44
c21 31 19 148 24 194c-158 -12 -229 -245 -229 -306z" />
    <glyph glyph-name="Ydieresis" unicode="&#x178;" horiz-adv-x="510" 
d="M121 242c-1 51 -62 86 -100 341c0 1 -1 4 -1 8v9c0 44 0 75 41 75c91 0 84 -136 119 -329c11 0 156 286 173 318c19 37 40 67 83 67c25 0 54 -28 54 -54c0 -17 -25 -52 -40 -69l-216 -395l-10 -184c-1 -18 -21 -27 -36 -27c-63 0 -68 45 -68 97c0 22 1 122 1 143z
M105 762c0 17 19 27 39 27c22 0 46 -12 46 -39c0 -19 -15 -39 -37 -39h-5c-24 2 -43 32 -43 51zM305 713c-21 2 -42 27 -42 50c0 16 10 30 37 35c29 0 47 -14 47 -46c0 -19 -15 -39 -37 -39h-5z" />
    <glyph glyph-name="quoteleft" unicode="&#x2018;" horiz-adv-x="126" 
d="M88 689l2 -8c8 -42 16 -85 16 -128c0 -9 0 -17 -1 -26c-2 -35 -6 -57 -16 -105c-4 -13 -19 -13 -31 -13c-24 0 -38 10 -38 34c2 32 12 63 12 98c0 39 -6 77 -6 116c0 16 1 62 25 62c15 0 34 -17 37 -30z" />
    <glyph glyph-name="quoteright" unicode="&#x2019;" horiz-adv-x="126" 
d="M38 439l-2 8c-8 42 -16 85 -16 128c0 9 0 17 1 26c2 35 6 57 16 105c4 13 19 13 31 13c24 0 38 -10 38 -34c-2 -32 -12 -63 -12 -98c0 -39 6 -77 6 -116c0 -16 -1 -62 -25 -62c-15 0 -34 17 -37 30z" />
    <glyph glyph-name="quotesinglbase" unicode="&#x201a;" horiz-adv-x="126" 
d="M38 -13l-2 8c-8 42 -16 85 -16 128c0 9 0 17 1 26c2 35 6 57 16 105c4 13 19 13 31 13c24 0 38 -10 38 -34c-2 -32 -12 -63 -12 -98c0 -39 6 -77 6 -116c0 -16 -1 -62 -25 -62c-15 0 -34 17 -37 30z" />
    <glyph glyph-name="quotedblleft" unicode="&#x201c;" horiz-adv-x="243" 
d="M205 693l2 -8c8 -42 16 -85 16 -128c0 -9 0 -17 -1 -26c-2 -35 -6 -57 -16 -105c-4 -13 -19 -13 -31 -13c-24 0 -38 10 -38 34c2 32 12 63 12 98c0 39 -6 77 -6 116c0 16 1 62 25 62c15 0 34 -17 37 -30zM102 469v-23c-1 -12 -7 -37 -27 -37c-18 0 -38 8 -44 25
c-7 57 -11 115 -11 177v9c2 22 4 49 36 49c39 0 46 -140 46 -200z" />
    <glyph glyph-name="quotedblright" unicode="&#x201d;" horiz-adv-x="243" 
d="M38 439l-2 8c-8 42 -16 85 -16 128c0 9 0 17 1 26c2 35 6 57 16 105c4 13 19 13 31 13c24 0 38 -10 38 -34c-2 -32 -12 -63 -12 -98c0 -39 6 -77 6 -116c0 -16 -1 -62 -25 -62c-15 0 -34 17 -37 30zM141 663v23c1 12 7 37 27 37c18 0 38 -8 44 -25c7 -57 11 -115 11 -177
v-9c-2 -22 -4 -49 -36 -49c-39 0 -46 140 -46 200z" />
    <glyph glyph-name="quotedblbase" unicode="&#x201e;" horiz-adv-x="243" 
d="M38 -43l-2 8c-8 42 -16 85 -16 128c0 9 0 17 1 26c2 35 6 57 16 105c4 13 19 13 31 13c24 0 38 -10 38 -34c-2 -32 -12 -63 -12 -98c0 -39 6 -77 6 -116c0 -16 -1 -62 -25 -62c-15 0 -34 17 -37 30zM141 181v23c1 12 7 37 27 37c18 0 38 -8 44 -25c7 -57 11 -115 11 -177
v-9c-2 -22 -4 -49 -36 -49c-39 0 -46 140 -46 200z" />
    <glyph glyph-name="guilsinglleft" unicode="&#x2039;" horiz-adv-x="320" 
d="M20 297c6 17 122 151 209 243c25 0 52 -23 53 -54c-10 -27 -18 -30 -159 -182c151 -96 177 -143 177 -162c0 -22 -26 -42 -44 -42c-108 88 -210 143 -236 197z" />
    <glyph glyph-name="guilsinglright" unicode="&#x203a;" horiz-adv-x="320" 
d="M300 297c-26 -54 -128 -109 -236 -197c-18 0 -44 20 -44 42c0 19 26 66 177 162c-141 152 -149 155 -159 182c1 31 28 54 53 54c87 -92 203 -226 209 -243z" />
    <glyph glyph-name="Euro" unicode="&#x20ac;" horiz-adv-x="505" 
d="M60 266c-27 3 -40 21 -40 39c0 19 15 39 44 40c18 0 34 1 52 1c3 14 6 27 10 41c-7 0 -15 -1 -22 -1c-27 3 -40 22 -40 40c0 19 14 38 42 39c6 0 7 1 6 1l46 3c47 101 120 179 203 179c60 0 79 -18 118 -85c2 -3 6 -22 6 -28c0 -36 -25 -43 -48 -43c-21 0 -25 47 -50 47
c-39 0 -74 -27 -104 -68c8 0 18 -1 29 -2h42c23 -6 34 -23 34 -39c0 -18 -13 -35 -38 -40c-36 1 -72 6 -109 6c-7 -15 -12 -31 -17 -46c28 0 57 1 86 1c24 -8 31 -21 32 -51c0 -13 -20 -26 -35 -28h-8c-61 0 -92 -2 -92 -14c-1 -6 -1 -14 -1 -22c0 -38 8 -90 50 -90
c70 0 128 61 196 61c16 0 29 -5 29 -31c0 -82 -151 -147 -202 -147c-101 0 -174 86 -174 221v16h-45z" />
    </font>
</defs>
</svg>
